<svg width="400" height="400" viewBox="0 0 400 400" fill="none" xmlns="http://www.w3.org/2000/svg">
<path d="M289.261 97.9999C292.508 100.046 295.081 103.002 296.661 106.5C298.779 111.462 300.271 116.669 301.101 122C299.875 122.032 298.656 122.186 297.46 122.46C297.32 122.46 296.521 122.88 296.381 123.32C295.74 125.537 295.252 127.796 294.921 130.08L254.921 130.32C254.461 130.32 254.521 130.86 254.921 130.88C254.921 130.88 291.441 131.44 294.921 131.46C294.041 138.74 294.781 146.74 299.941 151.9C304.801 156.7 321.32 157.38 327.46 152.8C332.56 148.98 333.82 137.94 333.46 131.46C334.66 131.46 361.7 130.98 364.38 130.88C364.455 130.88 364.526 130.85 364.578 130.798C364.631 130.745 364.66 130.674 364.66 130.6C364.66 130.526 364.631 130.454 364.578 130.402C364.526 130.349 364.455 130.32 364.38 130.32C359.82 130.32 333.4 130.12 333.4 130.12C332.86 124.12 331.4 123.52 331.4 123.24C331.384 123.055 331.309 122.88 331.187 122.739C331.065 122.599 330.902 122.501 330.72 122.46C328.981 122.12 327.213 121.939 325.44 121.92C328.24 117.42 330.64 105.18 335.04 96.9799C341.56 84.7599 366.1 96.3999 365.7 85.5999C365.22 73.5999 351.9 66.8599 337.6 73.2199C324.02 79.2199 320.48 107.22 320.24 121.84C316.14 121.84 318.12 121.96 312.24 121.84C317.38 115 323.92 92.1999 322.78 76.2599C321.475 65.6815 317.022 55.7388 310 47.7199C303.84 40.8199 296.62 37.8999 291.18 43.4399C283.18 51.4399 290.541 60.3799 297.381 69.4399C304.901 79.4399 307.72 84.4199 308.74 98.6599C309.218 106.386 309.071 114.138 308.3 121.84H306.08C307.8 116.22 305.58 103.84 303.96 98.0199C301.64 89.7999 297.68 81.5199 291.4 75.8199C283.982 69.4141 274.959 65.1483 265.3 63.4799C259.4 62.4799 254.361 62.8599 251.621 64.4999C250.613 65.024 249.835 65.9023 249.436 66.9658C249.037 68.0292 249.046 69.2025 249.461 70.2599C252.781 81.1199 276.261 89.9999 289.261 97.9999ZM338 74.4999C351.38 68.4999 363.7 74.7999 364.12 85.6799C364.44 94.0199 340.38 83.6799 333.82 96.4599C329.26 105.3 327.24 117.66 324.48 121.94H323.06C325.06 113.12 329.96 93.4999 335.72 86.5599C343.08 77.5799 355.9 82.8199 356.46 82.6799C356.68 82.6799 356.9 82.3199 356.24 82.0799C348.24 79.1799 340.1 79.2399 334.66 85.6799C328.12 93.3999 324 112 322.28 122H320.56C321.1 108 325.02 80.1999 338 74.4999ZM309.76 98.6399C308.96 84.5199 306.36 79.3399 298.46 68.6399C291.98 59.9399 285.041 51.6399 292.201 44.3799C297.081 39.4199 303.44 42.3799 308.96 48.6199C315.72 56.4443 319.982 66.1124 321.2 76.3799C322.5 92.5799 315.9 115.84 311.2 121.86H310.141C312.28 112.702 313.664 103.384 314.28 93.9999C314.74 85.9999 314.6 80.4399 312.28 73.4799C310.374 68.1807 307.728 63.1777 304.421 58.6199C302.842 56.3718 301.104 54.2397 299.221 52.2399C299.173 52.1816 299.104 52.1446 299.029 52.1371C298.954 52.1296 298.879 52.1522 298.821 52.1999C298.762 52.2477 298.725 52.3166 298.718 52.3916C298.71 52.4667 298.733 52.5416 298.781 52.5999C299.281 53.1234 299.749 53.6778 300.18 54.2599C306.42 62.2599 312.58 73.9399 313.06 84.2599C313.54 94.5799 311.48 111.8 309.58 122H309.02C309.904 114.246 310.151 106.434 309.76 98.6399ZM330.141 124.16C333.44 127.18 332.4 147.24 326.42 151.72C320.441 156.2 304.86 155.14 300.62 151.04C293.941 144.62 294.62 132.6 296.9 123.68C297.042 123.867 297.238 124.006 297.46 124.08C298.998 124.435 300.564 124.649 302.141 124.72C300.183 131.978 300.525 139.665 303.12 146.72C303.216 146.921 303.388 147.077 303.598 147.152C303.808 147.227 304.039 147.215 304.24 147.12C304.442 147.024 304.597 146.853 304.672 146.643C304.747 146.433 304.736 146.201 304.641 146C302.121 140.96 301.44 129.76 302.9 124.86C309.14 125.14 325.841 125.26 330.141 124.16ZM290.541 76.8399C304.101 88.8399 307.581 115.42 305.481 121.9H304.24C303.957 116.342 302.989 110.841 301.36 105.52C297.04 91.5199 289.801 82.9199 278.701 76.4399C272.902 73.1232 266.697 70.5752 260.24 68.8599C260.166 68.8414 260.088 68.8531 260.022 68.8924C259.956 68.9318 259.909 68.9957 259.891 69.0699C259.872 69.1442 259.884 69.2228 259.923 69.2884C259.962 69.3541 260.026 69.4014 260.101 69.4199C267.637 71.8096 274.79 75.2718 281.341 79.6999C288.604 84.5351 294.275 91.41 297.641 99.4599C300.834 106.576 302.86 114.16 303.641 121.92H301.761C301.021 116.431 299.596 111.055 297.52 105.92C295.899 102.227 293.237 99.086 289.86 96.8799C276.64 88.7399 253.861 79.8199 250.821 69.8199C248.001 60.6399 275.181 63.0799 290.541 76.8399ZM117.601 179.82C90.9605 170.56 67.0805 166.42 52.2205 162.68C52.0365 162.628 51.8439 162.614 51.6543 162.639C51.4647 162.663 51.2821 162.726 51.1172 162.823C50.9524 162.919 50.8088 163.048 50.6951 163.202C50.5813 163.356 50.4998 163.531 50.4553 163.717C50.4109 163.903 50.4044 164.096 50.4363 164.284C50.4682 164.473 50.5379 164.653 50.6411 164.814C50.7443 164.975 50.8789 165.113 51.0369 165.221C51.1949 165.328 51.373 165.403 51.5605 165.44C61.1205 167.74 75.5605 170.38 91.1805 174C116.981 180 117.541 181.78 117.961 180.54C118.005 180.397 117.993 180.242 117.926 180.107C117.859 179.973 117.742 179.87 117.601 179.82ZM328.7 196C328.7 195.953 328.691 195.906 328.673 195.862C328.655 195.818 328.628 195.779 328.595 195.745C328.562 195.712 328.522 195.685 328.478 195.667C328.435 195.649 328.388 195.64 328.34 195.64C310.8 195.64 293.74 199.64 284.08 200.54C283.963 200.55 283.848 200.583 283.744 200.638C283.64 200.693 283.547 200.769 283.473 200.86C283.398 200.952 283.343 201.057 283.31 201.171C283.277 201.284 283.267 201.403 283.281 201.52C283.291 201.638 283.324 201.754 283.379 201.859C283.434 201.964 283.509 202.058 283.6 202.134C283.691 202.21 283.796 202.268 283.91 202.303C284.023 202.338 284.142 202.351 284.261 202.34C291.341 201.64 303.6 198.96 315.08 197.48C327.82 196 328.72 196.9 328.7 196ZM268.281 237.62C268.298 237.587 268.308 237.551 268.312 237.514C268.315 237.477 268.311 237.44 268.3 237.405C268.289 237.37 268.271 237.337 268.247 237.308C268.223 237.28 268.194 237.257 268.161 237.24L267.661 236.98L267.541 237.58C267.881 237.74 268.141 238 268.281 237.62Z" fill="white"/>
<path d="M389.761 242.62C384.621 241.56 371.921 241.98 366.681 242.44C371.001 227.68 375.461 208.44 377.261 197.84C377.913 194.907 378.195 191.903 378.101 188.9C378.035 188.63 377.914 188.377 377.745 188.157C377.576 187.936 377.364 187.753 377.121 187.62C369.121 182.6 285.301 193.62 279.461 196.52C277.721 197.38 276.161 201.72 275.461 203.68C270.281 195.16 270.821 193.14 265.041 179.68C261.439 170.913 256.87 162.574 251.421 154.82C251.561 153.76 257.101 112.38 251.161 101.32C247.161 93.9198 225.501 91.3198 217.161 90.6198C217.161 90.1798 216.121 82.6198 215.681 79.1998C222.721 73.3198 225.681 62.4998 218.041 60.6798C212.621 59.3998 191.221 55.3198 175.281 59.4398C165.281 62.0398 157.281 67.8798 156.601 79.4398C156.332 83.8294 156.601 88.2354 157.401 92.5598C147.061 93.6998 129.261 95.3998 120.181 98.8198C108.501 103.22 113.421 154.32 114.661 158.46C113.981 160.14 113.341 161.84 112.761 163.42C83.6606 156 18.5206 142.16 15.6206 142.42C14.8652 142.411 14.1193 142.588 13.4493 142.937C12.7793 143.286 12.206 143.796 11.7806 144.42C11.0006 144.6 10.7206 145.7 10.5806 146.42C8.58056 157.06 12.2006 220.6 12.8406 231.38C13.9006 235.26 44.7206 243.68 48.7206 244.78C48.9206 250.04 49.9806 276.16 50.2006 281.52C48.4606 281.203 46.7382 280.796 45.0406 280.3C41.4806 278.84 27.8406 292.12 29.0406 291.02C23.8206 295.66 80.6206 310.92 85.1606 309.64C89.7006 308.36 98.6806 299.78 97.1606 295C96.7403 294.149 96.0314 293.476 95.1606 293.1C90.8606 290.84 79.4806 288.06 74.7406 286.92C75.2006 277.24 75.2006 261.36 75.1806 251.72C80.8006 253.12 112.701 260.84 118.461 260.74C118.873 260.746 119.281 260.642 119.641 260.44C121.481 260.18 123.641 259.72 123.821 257.84C123.821 257.28 124.281 252.4 124.861 245.16C138.961 250.54 156.061 250.14 159.101 248.9C159.92 248.505 160.613 247.888 161.101 247.12C161.241 247.3 161.301 247.26 162.361 247.42C166.361 248.06 172.761 248.66 176.361 246.78C181.461 247.6 196.241 248.78 197.341 243.84C197.481 243.18 197.681 241.84 197.881 240.22C212.681 241.02 265.241 240.66 265.441 240.66L264.221 246.16C264.19 246.114 264.148 246.078 264.099 246.053C264.05 246.029 263.995 246.017 263.941 246.02C263.941 245.9 263.941 245.86 263.941 246.02C255.751 245.374 247.533 245.161 239.321 245.38C236.401 245.52 228.701 245.88 228.561 248.72C227.538 251.133 227.389 253.828 228.141 256.34C228.581 257.92 232.301 260.48 233.681 261.42C225.861 260.64 221.301 260.94 218.941 261.78C218.379 261.878 217.856 262.129 217.429 262.507C217.002 262.884 216.689 263.373 216.523 263.918C216.357 264.463 216.346 265.043 216.49 265.594C216.634 266.146 216.929 266.646 217.341 267.04C220.021 270.72 225.601 271.96 226.201 276.78C227.341 285.92 204.101 296.26 195.621 299.88C199.881 294.28 211.301 276.66 205.761 272.4C199.601 267.66 146.781 265.58 141.921 266.82C138.501 267.7 113.361 286.28 113.821 292.82C114.141 297.08 138.881 301.26 143.481 302.06C148.661 302.94 185.621 308.7 190.041 305.88C190.978 305.502 191.829 304.938 192.544 304.223C193.259 303.509 193.822 302.657 194.201 301.72C201.859 299.087 209.23 295.683 216.201 291.56C227.201 284.74 233.361 276.3 222.481 269.2C221.181 268.36 217.621 265.8 218.141 264.36C219.261 261.18 234.721 262.36 234.941 262.36C242.121 267.04 255.861 274.26 263.961 276.36C272.521 278.62 312.521 274.24 322.181 273.02C323.281 277.02 324.341 280.74 325.041 283.02C323.541 283.14 319.261 283.52 318.061 284.46C317.401 284.98 317.421 285.86 318.481 286.46C318.481 293.16 317.661 313.2 319.661 322.24C320.421 325.62 321.301 327.02 324.801 328.24C331.421 330.38 344.141 329.62 350.801 327.84C354.941 326.72 355.481 325.84 356.141 323.64C358.421 316.16 358.301 294.08 358.141 286.24C358.269 286.147 358.373 286.025 358.445 285.885C358.517 285.744 358.554 285.588 358.554 285.43C358.554 285.272 358.517 285.116 358.445 284.975C358.373 284.834 358.269 284.713 358.141 284.62C356.661 283.934 355.068 283.527 353.441 283.42C353.721 281.18 355.221 268.66 355.441 266.46C356.486 265.833 357.419 265.035 358.201 264.1C359.423 262.614 360.218 260.823 360.501 258.92C362.501 256.3 365.381 246.52 366.321 243.32C375.241 243.7 388.321 243.18 389.541 243.32C389.633 243.349 389.734 243.34 389.82 243.295C389.906 243.25 389.971 243.173 390.001 243.08C390.03 242.987 390.021 242.886 389.976 242.8C389.931 242.714 389.853 242.649 389.761 242.62ZM119.421 285.78C120.761 284.3 122.341 282.76 124.021 281.2C131.161 274.6 140.241 267.96 142.221 267.46C147.021 266.22 199.741 269.46 205.101 273.46C206.001 274.14 206.181 275.46 206.001 277.04C205.281 283.32 198.721 293.68 194.901 298.74C190.581 295.02 125.141 286.56 119.421 285.78ZM217.421 92.0598C225.061 92.7798 246.481 95.2398 250.161 101.92C255.361 111.32 252.161 143.38 250.881 153.92C249.761 152.42 248.601 151 247.421 149.7C240.641 142.26 229.001 138.52 219.141 136.62C212.807 135.517 206.417 134.762 200.001 134.36C199.801 134.36 200.121 134.66 198.541 131.42C196.181 126.56 196.041 126.64 196.281 126.5C198.903 126.36 201.5 125.917 204.021 125.18C210.781 123.18 214.801 119.18 216.701 109.46C217.732 103.699 217.948 97.821 217.341 91.9998L217.421 92.0598ZM200.201 134.98C201.461 135.16 201.801 135.14 201.901 135.2C201.901 135.7 206.281 159.2 191.281 160.28C178.881 161.3 170.721 143.9 166.321 132.28C167.921 132.02 169.201 131.84 170.061 131.72C170.481 140.84 183.601 157.38 190.881 156.22C199.061 154.88 203.081 142.44 200.201 134.98ZM170.341 98.1798C170.52 97.2875 170.919 96.4542 171.503 95.7556C172.086 95.057 172.835 94.5153 173.681 94.1798C177.681 93.1998 177.681 98.1798 180.861 97.8998C184.861 97.6398 180.401 88.3598 183.841 82.6998C187.581 76.4598 202.741 89.0798 215.001 79.7198C216.481 90.2598 218.101 98.4598 215.841 109.22C213.841 118.66 210.121 122.14 203.701 124.02C201.062 124.627 198.391 125.081 195.701 125.38C195.486 125.501 195.305 125.675 195.176 125.885C195.047 126.094 194.973 126.334 194.961 126.58C194.961 127.28 196.961 130.86 198.821 135.04C201.601 141.6 197.981 153.52 190.661 154.66C185.461 155.48 175.281 143.82 172.381 135.58C171.101 131.94 171.481 131.8 173.741 117.58C176.921 117.8 177.581 111.58 177.741 108.36C177.774 107.677 177.536 107.009 177.081 106.5C175.641 104.92 174.461 106.76 171.661 103.26C171.05 102.581 170.611 101.765 170.381 100.881C170.151 99.9967 170.137 99.0704 170.341 98.1798ZM157.681 93.9998C160.361 106.24 167.401 114.74 172.241 117.1C171.361 122.72 170.361 128.98 170.101 130.88C158.56 131.459 147.179 133.82 136.361 137.88C131.556 139.719 127.079 142.319 123.101 145.58C120.901 134.18 126.561 111.9 125.861 105.58C125.541 102.9 124.781 100.06 122.161 99.4798C131.121 96.6598 147.721 95.0598 157.681 93.9998ZM120.961 99.9998C121.439 100.016 121.908 100.129 122.341 100.332C122.774 100.535 123.162 100.823 123.481 101.18C124.382 102.54 124.837 104.149 124.781 105.78C125.221 111.78 119.001 133.9 122.501 146.16C119.129 149.321 116.576 153.254 115.061 157.62C113.461 147.88 110.801 103.54 120.961 99.9998ZM49.1006 191.12C49.2606 190.18 50.9806 189.76 51.9206 189.6C58.8606 188.46 73.2806 192.42 72.9606 197.24C72.4806 204.38 74.6806 290.9 72.8006 294.08C70.5606 297.9 58.3206 295.78 53.4406 292.38C51.2206 290.84 51.2606 289.52 51.3206 289.78C49.6206 221.68 48.8206 192.68 49.1006 191.12ZM95.4606 295.66C96.4806 299.06 88.4606 306.88 84.7406 307.92C81.0206 308.96 26.1806 294.76 29.7606 291.52C28.1006 293.02 38.6806 283.28 43.3406 281.72C43.712 281.535 44.1365 281.485 44.5406 281.58C45.0806 281.82 47.2006 282.36 50.2606 283.08C50.4406 287.3 50.5606 289.8 50.5606 289.8C51.7406 295.68 70.5605 300.12 73.8405 294.7C74.3427 292.779 74.6113 290.805 74.6406 288.82C77.7006 289.58 93.4006 293.4 95.4606 295.66ZM118.461 259.04C113.201 259.24 80.4606 251.56 75.1806 250.32C75.0806 226.88 74.6005 200.6 74.8405 197.36C75.3205 190 56.6006 186 50.0006 188.16C49.3465 188.303 48.7455 188.626 48.265 189.093C47.7845 189.559 47.4436 190.15 47.2806 190.8C46.8406 193.46 48.5606 240.8 48.6606 243.64C45.4006 242.76 14.8606 234.62 13.6006 231.36C13.2606 224 10.0006 152.84 12.3206 146.1C23.2006 148.82 116.121 167.56 122.661 172.1C124.301 176.6 120.561 252.68 118.461 259.04ZM123.161 257.86C123.161 259.2 121.381 259.66 120.061 259.86C122.221 254.68 126.521 175.86 124.321 171.22C122.121 166.58 21.7806 147.08 12.4006 144.46C12.8177 144.008 13.3256 143.65 13.8909 143.409C14.4561 143.168 15.066 143.049 15.6806 143.06C18.4606 142.86 121.061 165.78 127.021 169.06C128.021 171.94 127.021 192 126.881 195.3C126.521 203.26 123.241 256.78 123.161 257.86ZM177.161 244.32C174.821 247.44 166.521 247.06 162.621 246.7H161.661C163.44 243.123 164.448 239.211 164.621 235.22C166.621 234.66 173.941 232.96 175.061 234.76C175.401 235.28 174.321 235.9 173.761 236.2C172.282 236.886 170.733 237.409 169.141 237.76C168.905 237.805 168.696 237.942 168.561 238.141C168.426 238.339 168.375 238.584 168.421 238.82C168.466 239.056 168.603 239.264 168.801 239.399C169 239.534 169.245 239.585 169.481 239.54C171.481 239.26 176.941 238.5 178.881 239.16C178.081 240.269 176.934 241.079 175.621 241.46C173.751 241.447 171.883 241.601 170.041 241.92C169.775 241.97 169.537 242.116 169.373 242.33C169.208 242.544 169.128 242.812 169.148 243.081C169.167 243.351 169.286 243.603 169.48 243.791C169.674 243.979 169.931 244.089 170.201 244.1C172.232 244.159 174.259 243.882 176.201 243.28C176.706 243.301 177.203 243.423 177.661 243.64C177.532 243.909 177.34 244.142 177.101 244.32H177.161ZM196.081 243.62C195.996 243.931 195.837 244.218 195.618 244.455C195.398 244.691 195.125 244.872 194.821 244.98C191.121 246.98 181.781 246.62 177.621 246.2C179.161 245.02 180.061 243.1 178.501 242.04C181.581 240.04 181.261 237.9 179.241 237.28C177.932 236.963 176.58 236.868 175.241 237C176.501 236.06 176.961 235 176.201 233.86C175.101 232.3 172.201 232.5 170.401 232.8C169.544 224.882 169.103 216.924 169.081 208.96C174.421 212.84 192.121 212.96 198.301 209.28C198.601 216 196.581 240.7 196.001 243.62H196.081ZM178.921 239.08C178.921 239.08 178.861 239.12 178.861 239.08H178.921ZM221.841 239.52C225.541 228.7 226.061 205.78 225.841 194.32C228.941 199.3 245.841 223.18 245.961 223.38C246.371 224.008 246.854 224.585 247.401 225.1C251.43 228.783 255.954 231.886 260.841 234.32C266.061 237.08 266.481 236.94 266.441 237.16L265.741 240.16C265.401 240.14 224.901 239.52 221.781 239.52H221.841ZM230.461 248.5C234.761 245.5 264.001 246.86 264.321 246.66V246.88C261.521 260.28 260.441 265.12 260.101 266.88C260.281 266.1 261.381 260.88 262.641 255.1C263.521 250.86 264.641 245.82 265.781 240.48C266.301 238.04 266.641 236.48 266.661 236.36C261.181 233.46 252.821 228.46 248.441 224.04C247.341 222.92 226.081 193.46 225.881 193.12C225.681 192.78 225.681 184 225.461 183.6C225.419 183.554 225.364 183.523 225.303 183.51C225.243 183.497 225.18 183.503 225.123 183.527C225.066 183.551 225.018 183.592 224.986 183.644C224.953 183.697 224.937 183.758 224.941 183.82C224.741 183.82 224.941 226.58 221.241 239.46L198.201 239.68C198.341 238.56 198.481 237.26 198.641 235.86C207.921 237.04 212.141 226.86 209.681 218.56C208.221 214 204.461 213.3 200.161 215.5C200.361 212.837 200.361 210.163 200.161 207.5C200.346 207.04 200.378 206.533 200.252 206.054C200.126 205.574 199.848 205.149 199.461 204.84C196.481 202.04 188.141 201.74 184.081 201.74C180.021 201.74 171.661 202.06 168.701 204.84C168.441 205.04 168.235 205.301 168.101 205.6C166.581 208.34 169.501 232.36 169.861 232.88C168.119 233.227 166.402 233.688 164.721 234.26V231.06C164.601 224.08 142.281 220.2 141.521 216.22C141.261 214.86 140.841 211.82 140.361 208.22C137.661 188.46 138.061 189.22 137.621 189.22C137.546 189.22 137.475 189.249 137.423 189.302C137.37 189.354 137.341 189.426 137.341 189.5C137.341 190.04 139.501 211.8 140.281 216.42C141.061 221.04 163.221 225.52 163.321 231.06C163.321 235.38 162.361 246.1 158.621 247.64C156.361 248.6 138.881 249.48 124.941 244.58C125.241 240.7 130.801 171.24 128.121 168.16C127.101 166.98 115.121 163.98 113.601 163.6C119.601 150 124.041 138.8 165.761 132.26C166.919 136.143 168.336 139.945 170.001 143.64C174.241 152.7 181.421 162.48 191.361 161.64C202.781 160.66 204.621 148.28 202.801 136.98C202.681 136.18 202.561 135.66 202.461 135.2C207.948 135.749 213.403 136.59 218.801 137.72C228.221 139.72 239.801 143.52 246.261 150.68C253.241 158.36 259.341 170.22 263.621 179.7C269.781 193.34 269.741 196.86 275.041 204.72C271.314 216.479 268.189 228.422 265.681 240.5C264.881 244.24 263.681 249.94 262.541 255.12C260.881 263.12 259.881 268.18 259.981 267.12C259.801 268.2 259.981 268.16 259.981 268.42C253.46 265.512 247.169 262.115 241.161 258.26C239.061 256.86 228.341 250 230.461 248.46V248.5ZM200.001 219.58C200.001 218.54 200.121 217.58 200.161 216.58C203.781 215.12 207.001 215.34 207.981 219.12C209.981 225.98 206.821 235.12 198.761 235.12C198.761 234.16 199.101 231.42 199.141 231.12C208.341 232.36 208.281 215.52 200.001 219.58ZM199.221 230.26C199.501 227.1 199.741 223.76 199.941 220.62C200.898 220.324 201.923 220.324 202.881 220.62C205.261 221.48 204.881 229.74 199.121 230.26H199.221ZM264.641 274.64C256.945 272.122 249.499 268.895 242.401 265C240.401 263.94 230.041 258.3 229.341 256.12C228.736 254.173 228.673 252.099 229.161 250.12C231.841 255.34 248.841 264.12 254.301 266.7C256.8 267.879 259.38 268.882 262.021 269.7C271.261 273 310.901 267.7 320.641 266.5C320.761 266.92 321.601 270.14 321.921 271.3C313.441 272.28 272.601 276.74 264.541 274.64H264.641ZM354.001 324.94C351.081 327.42 333.561 329.5 325.301 326.94C322.301 326 321.701 325.04 320.981 322C320.325 318.701 319.91 315.359 319.741 312C323.841 314.52 331.361 315.16 336.181 315.3C343.441 315.46 350.581 315.3 356.421 312C356.301 314.12 355.621 323.56 354.001 324.94ZM356.481 311.22C352.536 312.908 348.291 313.785 344.001 313.8C338.281 314.08 324.881 314.04 319.701 311.28C319.481 307.52 319.341 303.5 319.281 299.76C321.281 302.16 331.941 303.24 336.201 303.38C343.801 303.54 350.861 303.38 356.941 299.78C356.941 299.58 356.881 304.32 356.501 311.22H356.481ZM356.941 299.08C346.941 304.12 322.121 301.84 319.261 299.08V286.78C325.621 289.04 350.761 288.88 357.061 286.78C357.021 289.08 357.041 293.76 356.961 299.08H356.941ZM352.941 285.62C353.012 285.64 353.089 285.632 353.155 285.599C353.222 285.566 353.273 285.509 353.301 285.44C353.301 285.44 353.301 285.08 353.421 284.44C354.71 284.617 355.981 284.905 357.221 285.3C352.841 287.3 326.481 287.48 319.901 285.54C319.856 285.526 319.817 285.498 319.789 285.46C319.761 285.422 319.746 285.377 319.746 285.33C319.746 285.283 319.761 285.237 319.789 285.199C319.817 285.162 319.856 285.134 319.901 285.12C321.734 284.622 323.608 284.287 325.501 284.12C325.633 284.676 325.834 285.214 326.101 285.72C326.261 285.88 326.521 285.9 326.501 285.5C326.481 285.1 319.921 259.2 318.921 253.5C319.943 253.841 321.034 253.926 322.097 253.749C323.161 253.571 324.164 253.135 325.021 252.48C327.221 258.64 334.241 286.36 334.661 286.36C334.737 286.355 334.808 286.321 334.86 286.265C334.912 286.209 334.941 286.136 334.941 286.06L334.361 283.36H337.121C337.121 283.74 337.341 285.68 337.361 285.82C337.381 285.96 337.961 286.3 337.921 285.56C337.921 283.76 336.241 253.94 336.201 253.4C336.488 253.261 336.79 253.154 337.101 253.08C337.321 254.16 344.361 282.68 344.901 284.9C344.901 285.1 344.901 285.44 345.281 285.36C345.661 285.28 345.501 284.92 345.281 283.62L348.341 283.84V284.18C348.341 284.5 348.841 284.42 348.901 284.18C348.901 284.4 352.621 246.02 352.901 242.96C353.428 243.359 354.034 243.643 354.678 243.791C355.323 243.939 355.992 243.949 356.641 243.82C356.601 244.12 352.501 285.48 352.921 285.62H352.941ZM334.941 245.86C334.703 243.936 333.863 242.137 332.541 240.72C335.281 241.54 335.861 242.14 336.541 244.02C337.081 245.518 337.226 247.13 336.961 248.7C336.69 249.688 336.69 250.731 336.961 251.72C336.633 251.795 336.312 251.895 336.001 252.02C334.761 248.48 332.001 248.52 332.001 244.96C331.997 243.673 331.808 242.393 331.441 241.16C332.409 242.915 333.471 244.617 334.621 246.26C334.821 246.52 335.201 246.14 334.961 245.86H334.941ZM335.941 271.1C336.041 272.08 336.821 280.58 337.021 282.74H334.161C333.561 280.04 332.661 276.04 331.641 271.76L335.941 271.1ZM335.821 269.56L331.261 270.16C330.861 268.5 330.441 266.82 330.021 265.16C331.861 264.9 333.661 264.62 335.401 264.34C335.481 265.2 335.761 268.68 335.841 269.56H335.821ZM342.041 268.64C341.721 267.12 340.941 263.68 340.881 263.48C342.621 263.18 348.541 262.16 349.761 261.92C349.761 262.78 349.421 266.42 349.341 267.34C347.401 267.76 344.921 268.2 342.001 268.64H342.041ZM349.261 268.64C348.901 273.82 348.341 282.48 348.321 282.96C347.281 282.96 346.181 282.92 345.021 282.84C344.541 280.42 342.481 270.72 342.341 270.06C345.041 269.52 347.361 269.04 349.281 268.58L349.261 268.64ZM353.081 241.3C353.325 238.765 353.719 236.248 354.261 233.76C354.794 233.6 355.357 233.561 355.907 233.648C356.458 233.735 356.982 233.944 357.441 234.26C357.321 236.773 357.054 239.278 356.641 241.76C356.461 242.46 356.421 242.64 355.961 242.7C355.061 242.76 353.241 242 353.101 241.24L353.081 241.3ZM355.701 265.14C355.881 263.66 356.061 262.16 356.221 260.66C357.405 260.411 358.569 260.07 359.701 259.64C359.07 261.872 357.657 263.803 355.721 265.08L355.701 265.14ZM359.041 257.98C358.197 258.316 357.327 258.583 356.441 258.78C356.801 255.42 358.921 235.86 358.921 234.48C358.921 232.48 355.361 231.74 353.521 232.48C352.901 232.76 352.721 233.94 352.541 234.98C351.541 240.56 350.361 254.48 349.901 260.14L340.521 261.86C338.181 251.66 338.381 252.22 338.121 251.96C337.942 251.79 337.707 251.69 337.461 251.68C337.276 250.789 337.324 249.866 337.601 249C338.014 247.27 337.959 245.461 337.441 243.76C337.174 242.523 336.462 241.426 335.441 240.68C333.813 239.817 332.057 239.223 330.241 238.92C330.145 238.894 330.045 238.892 329.949 238.912C329.852 238.933 329.762 238.977 329.686 239.039C329.61 239.102 329.549 239.182 329.51 239.272C329.471 239.363 329.454 239.461 329.461 239.56C329.503 239.73 329.557 239.897 329.621 240.06C331.181 243.78 330.101 245.48 331.181 247.7C332.261 249.92 334.081 250.26 334.741 252.82C334.741 253.02 335.301 262.26 335.321 262.82L329.661 263.72C329.261 262.2 326.521 251.38 325.441 250.32C323.441 248.32 317.721 250.56 317.441 252.32C317.261 253.32 320.001 264.04 320.261 265.06C309.961 266.56 299.041 267.92 289.381 268.82C285.161 269.2 259.381 271.56 260.821 267.34C262.821 258.1 266.821 241.14 267.621 237.58V237.3C267.621 237 267.761 236.7 267.621 237.58C267.621 237.28 267.741 237.1 267.781 237L272.781 217.66C273.441 215.28 277.981 199.1 280.281 197.96C285.381 195.44 369.201 184.6 376.281 189.34C377.481 194.48 362.741 255.54 359.061 258L359.041 257.98Z" fill="white"/>
<path d="M197.021 97.1197V95.5797C197.021 95.3304 196.922 95.0913 196.745 94.915C196.569 94.7387 196.33 94.6397 196.081 94.6397C195.83 94.6396 195.588 94.738 195.409 94.9137C195.23 95.0895 195.126 95.3285 195.121 95.5797V97.3797C195.165 97.6175 195.299 97.8292 195.496 97.9705C195.692 98.1119 195.935 98.1721 196.175 98.1386C196.415 98.1051 196.632 97.9805 196.782 97.7907C196.932 97.6009 197.003 97.3606 196.981 97.1197H197.021ZM324.841 220.2C324.261 219.64 323.441 218.98 322.681 219.22C321.421 219.62 320.161 222.82 319.621 224.14C318.104 228.079 316.9 232.131 316.021 236.26C316.841 238.38 330.681 235.6 332.561 234.68C333.161 234.4 333.081 233.68 332.881 233.04C330.902 228.359 328.187 224.024 324.841 220.2ZM316.561 236C316.921 234.34 321.481 221.62 323.041 220.46C325.461 221.84 330.321 230.32 331.621 233.52C329.821 234.24 317.601 237.34 316.561 236ZM153.721 278.42C153.521 278.56 149.161 281.32 148.961 281.52C148.913 281.539 148.873 281.573 148.844 281.615C148.816 281.658 148.801 281.708 148.801 281.76C148.801 281.811 148.816 281.861 148.844 281.904C148.873 281.947 148.913 281.98 148.961 282C150.081 282.32 153.821 282.74 154.961 282.86C182.321 276 182.501 276 182.161 276C182.345 275.975 182.512 275.88 182.628 275.734C182.743 275.589 182.798 275.405 182.781 275.22C182.781 274.88 182.241 272.52 182.081 271.8L153.721 278.42ZM206.721 88.7597C207.281 88.7597 208.381 89.0197 208.601 89.0397C209.815 89.1656 211.018 89.3795 212.201 89.6797L214.001 89.9997C214.069 90.0167 214.142 90.0091 214.205 89.9781C214.268 89.9472 214.319 89.8949 214.347 89.8304C214.376 89.7659 214.381 89.6934 214.362 89.6256C214.342 89.5578 214.299 89.4991 214.241 89.4597C213.197 88.5756 211.931 87.9945 210.581 87.7797C209.243 87.4928 207.851 87.6112 206.581 88.1197C206.539 88.1289 206.499 88.1462 206.464 88.1708C206.428 88.1954 206.398 88.2267 206.375 88.2629C206.352 88.2991 206.336 88.3395 206.328 88.3819C206.321 88.4242 206.322 88.4676 206.331 88.5097C206.34 88.5517 206.357 88.5915 206.382 88.6268C206.407 88.6621 206.438 88.6922 206.474 88.7154C206.51 88.7387 206.551 88.7545 206.593 88.7621C206.635 88.7697 206.679 88.7689 206.721 88.7597ZM190.881 90.5197C191.421 90.3997 192.581 90.2197 192.881 90.1797C194.093 89.915 195.323 89.7412 196.561 89.6597L198.561 89.4397C198.64 89.4397 198.717 89.4081 198.773 89.3518C198.829 89.2955 198.861 89.2192 198.861 89.1397C198.861 89.0601 198.829 88.9838 198.773 88.9275C198.717 88.8713 198.64 88.8397 198.561 88.8397C197.272 88.2931 195.857 88.1104 194.472 88.3114C193.086 88.5124 191.782 89.0894 190.701 89.9797C190.653 89.9797 190.606 89.991 190.564 90.0126C190.522 90.0343 190.485 90.0657 190.457 90.1042C190.43 90.1428 190.411 90.1874 190.404 90.2344C190.397 90.2814 190.401 90.3294 190.416 90.3745C190.431 90.4196 190.457 90.4605 190.491 90.4938C190.525 90.5271 190.566 90.5518 190.611 90.566C190.657 90.5802 190.705 90.5834 190.752 90.5753C190.799 90.5673 190.843 90.5482 190.881 90.5197ZM210.881 93.9997C210.632 93.9997 210.392 94.0987 210.216 94.275C210.04 94.4513 209.941 94.6904 209.941 94.9397V96.7397C209.975 96.989 210.107 97.2144 210.308 97.3663C210.509 97.5182 210.762 97.5841 211.011 97.5497C211.26 97.5152 211.486 97.3831 211.637 97.1824C211.789 96.9818 211.855 96.729 211.821 96.4797V94.9397C211.824 94.8155 211.801 94.692 211.755 94.5767C211.709 94.4615 211.639 94.3567 211.552 94.2689C211.464 94.1811 211.359 94.1119 211.244 94.0657C211.128 94.0194 211.005 93.9969 210.881 93.9997ZM55.6608 267.64C58.4408 268.54 64.9208 270.96 67.9008 270.6C68.2608 270.6 68.6608 270.24 68.9208 269.6C70.9208 265.1 69.4808 242.22 68.7608 237.8C68.2608 234.62 56.7608 230.68 53.9808 232.94C52.1808 234.4 53.0808 251.34 53.2808 253.7C53.8008 259.4 53.2608 266.86 55.6608 267.64ZM54.8808 234C57.0408 232.44 67.0608 236.14 67.3808 238C67.8808 241.14 69.7408 267.54 67.7408 269.6C65.1608 269.98 58.3208 267.88 55.7408 267.08C53.9208 266.48 54.5408 258.52 54.2408 253.6C54.1008 250.28 53.8808 237.1 54.8808 234ZM197.001 109.1C196.951 109.075 196.896 109.062 196.841 109.062C196.785 109.062 196.731 109.075 196.681 109.1C196.181 109.28 195.881 109.84 195.801 110.66C195.736 112.779 196.447 114.848 197.801 116.48C198.118 116.913 198.519 117.278 198.98 117.552C199.442 117.827 199.953 118.006 200.485 118.079C201.017 118.152 201.558 118.117 202.076 117.976C202.594 117.835 203.079 117.592 203.501 117.26C204.706 116.267 205.653 114.998 206.261 113.56C206.316 113.448 206.344 113.324 206.344 113.2C206.344 113.075 206.316 112.952 206.261 112.84C205.641 111.88 204.161 113.24 197.001 109.1ZM196.821 109.78C198.994 111.63 201.537 112.994 204.281 113.78C200.001 121.06 195.701 111.24 196.821 109.78ZM201.721 105.08C203.001 105.32 206.541 104.88 207.301 103.58C207.681 102.96 207.301 102.76 206.461 100.2C205.704 97.9756 204.816 95.7985 203.801 93.6797C203.441 93.1197 202.981 93.6797 203.241 94.0197C203.797 97.086 204.682 100.083 205.881 102.96C204.433 103.637 202.951 104.238 201.441 104.76C201.438 104.799 201.443 104.839 201.456 104.876C201.468 104.914 201.488 104.948 201.514 104.978C201.54 105.008 201.572 105.032 201.607 105.049C201.643 105.067 201.681 105.077 201.721 105.08ZM275.481 313.06C282.981 308.3 277.141 303.92 272.181 306C270.961 303.78 270.681 303.6 268.181 303.72C255.201 304.38 196.581 317.94 196.021 318.16C193.061 319.38 200.581 337.04 203.561 339.36C204.241 339.88 204.021 339.98 211.361 338.54C211.841 342.9 213.741 350.54 218.181 350.78C220.25 350.401 222.265 349.769 224.181 348.9C227.89 352.59 231.838 356.03 236.001 359.2C240.601 362.28 270.001 327.94 274.401 323.94C275.661 323.52 276.781 323.24 276.641 320.12C280.441 319.42 283.381 317.08 281.361 313.72C280.001 311.68 277.641 312 275.481 313.06ZM276.181 307.62C277.001 307.92 277.421 308.24 277.161 309.06C276.622 310.313 275.833 311.443 274.841 312.38C274.31 310.753 273.689 309.157 272.981 307.6C274.016 307.227 275.15 307.234 276.181 307.62ZM254.901 306.96C255.641 310.46 256.141 312.36 257.081 315.58L243.221 318.2C242.424 315.306 241.496 312.45 240.441 309.64C243.061 309.14 252.761 307.32 254.901 306.96ZM234.401 333.66C235.134 336.173 236.218 338.569 237.621 340.78C233.781 342.64 230.161 344.34 227.081 345.74C225.976 342.386 224.422 339.197 222.461 336.26L234.401 333.66ZM228.741 333.66C228.065 330.185 227.21 326.747 226.181 323.36L242.181 319.9C243.053 323.287 244.108 326.626 245.341 329.9C239.841 331.06 234.101 332.36 228.741 333.58V333.66ZM235.401 333.76C235.181 333.44 233.821 333.92 248.541 330.54C248.801 332.026 249.351 333.446 250.161 334.72L238.441 340.46C237.745 338.07 236.722 335.789 235.401 333.68V333.76ZM249.401 330.32C257.001 328.56 263.981 326.88 268.801 325.6L251.141 334.22C250.814 332.8 250.231 331.451 249.421 330.24L249.401 330.32ZM246.021 329.7C245.379 326.287 244.565 322.91 243.581 319.58L257.241 316.22C257.241 316.32 258.161 319.4 258.581 320.72C258.781 321.32 260.481 326.16 260.581 326.24C256.441 327.16 246.341 329.54 246.001 329.62L246.021 329.7ZM239.841 309.84C240.501 313.48 241.121 315.84 241.841 318.56L225.841 322.08C224.901 318.9 224.261 316.82 222.881 313.22C226.001 312.5 237.441 310.22 239.861 309.76L239.841 309.84ZM222.221 313.34C223.001 317.34 223.581 319.44 224.421 322.4C223.081 322.7 212.141 325.44 212.141 325.44C211.741 325.44 211.901 326.06 212.301 325.98C212.301 325.98 224.161 323.78 224.761 323.64C224.761 323.64 225.621 327.08 228.081 333.82L215.181 336.7C213.336 329.723 211.017 322.881 208.241 316.22L222.221 313.34ZM204.121 338.68C201.081 336.4 194.121 319.6 196.221 318.68C196.221 318.68 200.801 317.68 207.681 316.24C209.396 323.249 211.683 330.105 214.521 336.74C204.001 339.1 204.461 338.86 204.141 338.6L204.121 338.68ZM218.121 349.32C214.741 349.32 212.721 342.02 212.121 338.7C212.121 338.32 211.061 338.7 221.521 336.52C222.041 336.42 221.221 336.28 223.721 341.48C224.438 343.114 225.323 344.669 226.361 346.12C223.73 347.38 221.001 348.423 218.201 349.24L218.121 349.32ZM236.761 357.88C232.695 355.03 228.789 351.959 225.061 348.68C228.501 347.26 232.401 345.44 235.761 343.84C238.391 346.898 241.372 349.636 244.641 352C243.281 353.16 238.661 357.44 236.841 357.8L236.761 357.88ZM245.221 351.4C242.579 348.451 239.622 345.802 236.401 343.5L248.961 337.32C250.711 339.116 252.736 340.622 254.961 341.78C251.815 345.034 248.595 348.215 245.301 351.32L245.221 351.4ZM255.641 341.14C253.973 339.437 252.074 337.976 250.001 336.8C258.601 332.46 263.541 329.82 271.561 325.38C268.001 328.52 258.961 337.76 255.721 341.06L255.641 341.14ZM274.721 322.34C273.861 322.96 262.081 325.84 261.061 326.08C259.787 319.537 257.919 313.123 255.481 306.92C259.361 306.26 267.041 304.92 269.901 305.24C270.288 305.695 270.623 306.191 270.901 306.72C269.536 307.647 268.406 308.88 267.601 310.32C267.401 310.82 267.921 311.08 268.181 310.84C269.181 309.781 270.351 308.896 271.641 308.22C272.548 310.095 273.336 312.025 274.001 314C272.224 315.215 270.622 316.668 269.241 318.32C268.981 318.64 269.061 318.88 269.241 318.98C269.721 319.26 269.761 318.54 274.481 315.74C274.958 317.359 275.227 319.032 275.281 320.72C275.181 321.08 275.121 322 274.801 322.26L274.721 322.34ZM279.701 316.98C278.808 318.003 277.683 318.798 276.421 319.3C276.237 317.874 275.949 316.464 275.561 315.08C276.861 314.42 278.881 313.58 279.561 314.8C279.817 315.08 279.976 315.436 280.016 315.814C280.055 316.191 279.973 316.572 279.781 316.9L279.701 316.98Z" fill="white"/>
</svg>
