<svg xmlns="http://www.w3.org/2000/svg" xmlns:xlink="http://www.w3.org/1999/xlink" version="1.1" x="0px" y="0px" viewBox="0 0 100 125" enable-background="new 0 0 100 100" xml:space="preserve"><path d="M89.569,32.368c-2.34,0.466-6.125,1.932-9.761,3.771c0.085-0.059,0.179-0.123,0.281-0.193  c2.016-1.384,2.582-1.8,4.658-3.428c3.574-2.793,5.145-4.316,6.005-5.821c0.271-0.47,0.418-0.826,0.256-1.036  c-0.156-0.201-0.516-0.194-1.329,0.026c-0.388,0.101-1.325,0.324-2.074,0.483c-2.78,0.606-6.128,1.955-8.738,3.521l-1.25,0.751  l-1.232,0.08c-1.712,0.107-2.527,0.22-5.127,0.711c-3.735,0.714-4.484,0.888-6.67,1.549c-0.346,0.102-0.697,0.204-1.011,0.295  c0.953-0.462,2.58-1.231,4.924-2.317c2.349-1.092,3.398-1.701,6.604-3.834c2.997-1.986,4.407-3.313,5.389-5.074  c0.396-0.725,0.527-1.142,0.435-1.391c-0.039-0.105-0.118-0.183-0.23-0.227c-0.332-0.118-3.376,0.53-4.369,0.861  c-2.463,0.829-6.513,3.265-9.85,5.924c-0.834,0.677-2.138,1.833-3.043,2.697c0.092-0.095,0.187-0.193,0.284-0.293  c4.646-4.777,8.375-9.182,10.499-12.403c1.459-2.226,2.803-5.056,2.43-5.747c-0.06-0.111-0.164-0.172-0.291-0.172  c-0.648,0-3.364,1.719-5.049,3.073c-1.974,1.586-5.351,5.472-7.228,8.316c-0.81,1.228-1.372,2.142-2.08,3.417  c3.153-6.333,4.761-10.07,5.375-12.491c0.271-1.05,0.544-3.235,0.665-5.313c0.07-1.149,0.007-1.737-0.208-1.966  c-0.07-0.075-0.16-0.114-0.259-0.114c-0.241,0-0.962,0.822-1.002,0.868c-1.709,1.896-2.925,3.874-3.942,6.413  c-1.383,3.483-2.497,7.28-3.668,12.522c0.659-3.777,0.875-6.001,0.875-8.805c0-3.704-0.673-8.035-1.501-9.655  c-0.196-0.381-0.376-0.635-0.619-0.635c-0.268,0-0.485,0.32-0.75,0.837c-0.816,1.631-1.723,5.925-1.832,8.669  c-0.093,2.467,0.187,5.879,0.792,9.742c-0.769-3.15-1.931-6.847-2.959-9.301c-0.724-1.717-1.894-4.073-2.362-4.757  c-0.707-1.028-1.725-2.146-2.222-2.192c-0.107-0.008-0.185,0.034-0.225,0.073c-0.415,0.415-0.469,2.976-0.26,5.106  c0.13,1.315,0.57,3.338,0.94,4.329c0.644,1.728,2.237,5.052,3.843,8.055c-1.863-2.971-3.28-5.037-4.116-5.997  c-1.202-1.37-2.69-2.771-3.46-3.257c-0.561-0.37-0.583-0.385-0.846-1.312c-0.756-2.605-2.753-6.926-3.544-6.926  c-0.063,0-0.154,0.021-0.237,0.123c-0.455,0.555-0.319,3.552,0.29,6.843c-0.126-0.229-0.286-0.531-0.473-0.899  c-1.705-3.375-3.387-6.028-4.614-7.28C35.048,7.944,34.694,7.68,34.46,7.68h-0.416l0.078,1.336c0.095,1.588,0.635,3.919,1.377,5.939  c0.314,0.848,0.612,1.683,0.659,1.834c0.205,0.683,1.435,3.317,2.251,4.876c-1.356-2.042-2.026-2.86-3.919-4.822  c-2.639-2.734-5.751-4.964-6.671-4.785c-0.141,0.029-0.241,0.109-0.288,0.232c-0.183,0.457,1.532,3.929,2.631,5.685  c0.78,1.253,2.202,3.138,3.236,4.291l0.705,0.792l-0.15,0.239c-1.016,1.601-1.793,3.608-2.189,5.651  c-0.183,0.95-0.215,1.764-0.203,5.124c0.002,0.671,0.001,1.213-0.002,1.65c-0.017-0.257-0.035-0.551-0.055-0.889  c-0.128-2.447-0.318-3.916-0.782-6.042c-0.328-1.485-1.29-4.452-1.838-5.668c-0.763-1.696-2.551-4.299-3.132-4.068  c-0.392,0.144-0.519,2.114-0.519,3.045c0,1.706,0.22,3.244,0.783,5.485c0.685,2.73,1.471,4.987,2.699,7.75  c-1.691-3.568-3.398-6.451-4.949-8.355c-2.187-2.68-5.527-5.55-6.743-5.793c-0.191-0.038-0.428-0.061-0.57,0.091  c-0.176,0.188-0.152,0.559,0.094,1.468c0.577,2.189,2.036,5.368,3.394,7.393c1.089,1.633,3.788,4.772,5.451,6.339  c0.482,0.443,1.009,0.935,1.45,1.352c-0.667-0.521-1.69-1.332-3.058-2.426c-5.036-4.051-6.947-5.079-12.029-6.47  c-2.031-0.551-3.23-0.707-3.667-0.474c-0.125,0.065-0.259,0.152-0.296,0.309c-0.053,0.226,0.111,0.501,0.5,1.032  c0.271,0.377,0.708,1.002,0.966,1.377c0.636,0.955,2.039,2.353,3.334,3.325c1.494,1.121,6.103,3.407,8.652,4.292  c2.249,0.781,4.13,1.452,5.222,1.854c-1.149-0.208-3.036-0.571-4.745-0.903c-4.019-0.771-4.694-0.833-7.992-0.829  c-4.072,0-6.45,0.388-8.207,1.337c-0.422,0.23-0.65,0.398-0.647,0.625c0.004,0.29,0.357,0.519,1.417,1.061  c1.494,0.765,3.569,1.4,5.552,1.7c1.676,0.256,4.63,0.345,6.323,0.19c1.627-0.155,3.687-0.418,5.202-0.652  c-3.472,0.919-6.965,2.037-8.5,2.739c-2.563,1.167-5.446,3.003-6.428,4.092c-0.578,0.641-0.803,1.02-0.777,1.309  c0.012,0.136,0.081,0.254,0.208,0.354c0.367,0.253,2.929,0.217,4.213-0.003c2.188-0.384,6.727-2.44,11.2-5.038  c-2.956,1.903-6.022,4.364-8.006,6.458c-1.535,1.61-3.388,4.072-3.388,4.714c0,0.074,0.009,0.159,0.079,0.221  c0.108,0.097,0.285,0.088,0.805,0.033c1.101-0.133,2.327-0.588,4.233-1.571c1.81-0.934,2.267-1.22,3.76-2.349  c2.431-1.837,3.394-2.776,6.866-6.699c0.583-0.655,1.002-1.125,1.279-1.424c-0.379,0.484-1.004,1.188-1.265,1.482  c-2.45,2.742-4.367,5.384-5.543,7.641c-0.539,1.04-1.666,3.622-1.855,4.209c-0.054,0.074-0.515,0.348-1.33,0.704  c-2.131,0.912-3.298,1.519-4.625,2.408c-1.61,1.082-3.33,2.476-3.325,3.14c0,0.119,0.053,0.216,0.15,0.279  c0.342,0.224,4.015,0.135,5.362-0.04c2.786-0.367,6.294-1.368,9.384-2.677c0.189-0.081,0.365-0.154,0.522-0.218  c-0.508,0.341-1.269,0.842-2.245,1.474c-4.39,2.82-7.67,5.436-8.562,6.826c-0.327,0.504-0.467,0.796-0.327,0.991  c0.186,0.258,0.762,0.161,2.399-0.259c1.971-0.499,3.47-1.007,4.861-1.648l1.026-0.467l0.667,0.133  c1.051,0.224,4.005,0.218,5.745-0.01c2.885-0.392,5.148-0.923,8.075-1.895c0.525-0.175,0.962-0.314,1.289-0.415  c-0.648,0.376-1.861,1.025-3.627,1.896c-4.461,2.201-8.154,4.427-10.131,6.108c-0.643,0.542-2.099,2.081-2.099,2.375  c0,0.143,0.225,0.325,0.365,0.424c0.344,0.219,0.461,0.205,1.427,0.005c2.112-0.444,4.552-1.268,6.216-2.1  c1.835-0.917,4.278-2.681,6.381-4.594c-1.326,1.385-2.858,3.051-3.499,3.823c-2.219,2.659-3.628,4.935-5.023,8.117  c-0.891,2.027-1.038,2.452-0.718,2.771c0.262,0.262,0.394,0.194,0.892-0.061c0.749-0.405,2.864-2.232,4.116-3.554  c2.811-2.969,5.117-6.158,7.629-10.564c-0.036,0.073-0.073,0.146-0.11,0.221c-1.429,2.847-2.908,6.78-3.681,9.789  c-0.669,2.592-0.937,4.722-0.925,7.352c0.017,2.11,0.11,2.72,0.437,2.839c0.257,0.092,0.547-0.171,0.964-0.657  c1.441-1.669,2.71-3.795,3.575-5.985c0.7-1.745,1.641-5.831,2.098-9.108c0.223-1.604,0.383-2.749,0.494-3.517  c-0.025,0.83-0.086,2.122-0.165,3.458c-0.308,5.247-0.13,10.051,0.544,14.688c0.256,1.718,0.54,2.487,0.95,2.572  c0.012,0.002,0.024,0.003,0.036,0.003c0.535,0,1.395-2.132,1.735-3.193c0.691-2.202,0.88-3.504,0.88-6.059  c-0.012-3.225-0.142-4.217-1.266-9.647c-0.167-0.787-0.288-1.412-0.374-1.89c0.052,0.18,0.107,0.378,0.167,0.592  c1.333,4.791,2.231,7.346,3.843,10.938c1.278,2.86,1.916,3.969,2.846,4.947c0.588,0.614,1.002,0.866,1.306,0.804  c0.163-0.036,0.283-0.158,0.354-0.363c0.159-0.437,0.058-2.348-0.136-3.511c-0.577-3.369-1.407-5.365-5.549-13.354  c-0.231-0.443-0.432-0.836-0.59-1.15c0.272,0.322,0.624,0.745,1.02,1.228c3.612,4.401,7.875,7.958,11.123,9.28  c0.602,0.25,0.854,0.291,1.075,0.172c0.464-0.249,0.313-0.659-0.172-1.607c-1.455-2.839-4.707-6.719-7.25-8.65  c-0.527-0.393-2.171-1.554-3.652-2.553c-0.743-0.508-1.368-0.941-1.813-1.254c0.441,0.174,1.019,0.404,1.649,0.658  c2.316,0.934,3.255,1.276,5.926,2.082c0.327,0.096,1.007,0.297,1.054,0.399c-0.258,0.619-0.647,1.721-0.647,1.972  c0,0.186,0.104,0.359,0.246,0.412c0.329,0.131,2.32-0.551,3.333-1.031l0.948-0.458l2.575,0.274l-0.198,0.496  c-0.716,1.76-1.28,4.307-1.473,6.648c-0.137,1.699-0.089,2.229,0.213,2.367c0.294,0.132,0.708-0.209,1.417-0.935  c2.277-2.313,4.144-5.956,5.874-11.467c0.209-0.667,0.391-1.212,0.525-1.595c-0.066,0.389-0.166,0.941-0.295,1.653  c-0.526,2.877-0.581,3.42-0.581,5.808c0,3.159,0.424,6.147,1.164,8.2c0.329,0.909,1.264,2.749,1.618,2.819  c0.088,0.014,0.18-0.009,0.27-0.075c0.624-0.455,1.465-3.212,1.801-5.899c0.092-0.732,0.167-1.725,0.167-2.212  c0-1.901-0.729-6.043-1.528-8.69c-0.092-0.306-0.182-0.618-0.262-0.9c0.181,0.489,0.441,1.205,0.816,2.253  c2.298,6.467,4.024,9.803,6.158,11.901c0.213,0.206,2.089,1.994,2.429,1.801c0.331-0.195,0.288-2.082,0.191-3.049  c-0.191-1.776-0.787-3.539-2.125-6.287c-1.07-2.209-1.743-3.371-3.018-4.947c2.841,3.097,5.064,4.839,8.079,6.353  c1.866,0.936,4.211,1.978,4.803,1.612c0.105-0.065,0.16-0.167,0.16-0.295c0-0.401-0.798-1.909-1.485-2.938  c-0.997-1.495-2.377-2.811-4.765-4.542c-2.921-2.097-3.867-2.705-6.329-4.069c-0.615-0.34-1.079-0.601-1.426-0.801  c0.731,0.329,1.922,0.885,3.85,1.813c5.126,2.487,6.079,2.786,9.271,2.905c1.715,0.059,2.028,0.051,3.009-0.204  c1.049-0.258,1.362-0.388,1.46-0.606c0.063-0.142,0.004-0.283-0.046-0.378c-0.231-0.422-1.979-1.749-2.872-2.234  c-1.015-0.542-3.347-1.44-4.54-1.747c-1.097-0.268-2.631-0.489-6.567-0.947c-1.06-0.126-1.98-0.247-2.599-0.335  c1.011,0.007,2.754,0.085,4.521,0.242c4.419,0.399,7.264,0.199,9.513-0.669c1.422-0.548,2.829-1.483,2.621-2.04  c-0.187-0.466-3.042-1.251-4.809-1.518c-2.35-0.344-4.426-0.096-8.234,0.983c-1.75,0.496-3.258,0.866-4.22,1.039  c0.347-0.094,0.773-0.202,1.201-0.301c3.459-0.776,5.955-1.87,8.347-3.658c1.498-1.121,3.982-3.506,3.982-4.067  c0-0.42-0.168-0.42-0.976-0.42c-2.816,0.012-6.451,1.568-11.438,4.897c-0.491,0.327-1.098,0.75-1.613,1.122  c1.607-1.365,3.706-3.508,4.395-4.524c1.39-2.041,2.839-4.882,2.621-5.491c-0.044-0.104-0.117-0.175-0.217-0.211  c-0.28-0.102-0.77,0.061-1.879,0.621c-1.635,0.818-2.573,1.525-4.013,3.024c-1.325,1.384-1.977,2.314-3.172,4.525  c-0.121,0.226-0.241,0.448-0.355,0.659c0.761-1.639,1.952-4.635,2.251-5.705c0.123-0.478,0.299-1.451,0.369-2.189l0.14-1.216  l1.003,0.063c0.599,0.035,2.979,0.082,5.438,0.095c3.962,0.011,4.372-0.007,5.459-0.251c1.568-0.355,2.219-0.584,2.486-0.878  c0.099-0.112,0.187-0.236,0.157-0.383c-0.041-0.204-0.29-0.358-0.832-0.625c-2.171-1.109-6.222-1.915-9.631-1.915  c-0.203,0-0.681,0-1.017-0.017c0.516-0.139,1.485-0.335,2.021-0.444c4.699-0.949,9.185-2.285,10.91-3.248  c0.583-0.326,2.023-1.316,2.023-1.597c0-0.052-0.017-0.13-0.1-0.208c-0.492-0.46-3.12-0.55-5.346-0.401  c-4.153,0.28-6.672,0.839-11.209,2.487c7.289-3.107,10.25-4.553,13.361-6.495c2.613-1.625,3.952-2.721,4.094-3.352  c0.03-0.133,0.013-0.251-0.049-0.347C94.81,31.642,91.362,32.02,89.569,32.368z M82.079,28.708c1.924-0.891,6.817-2.354,8.238-2.465  c-0.023,0.038-0.05,0.078-0.072,0.111l-0.001,0.001c-1.136,1.785-3.983,4.312-8.704,7.722c-2.182,1.57-3.805,2.779-4.822,3.593  l-0.871,0.695l-0.884-0.426c-1.116-0.546-2.138-0.973-3.04-1.27l-0.432-0.139l0.707-0.716c0.702-0.702,0.905-0.844,1.278-0.897  c0.641-0.105,2.642-0.608,3.629-0.913c0.423-0.129,1.581-0.646,2.581-1.153c1.65-0.825,1.944-1.062,1.979-1.282  c0.012-0.075-0.013-0.147-0.067-0.201c-0.214-0.23-1.874-0.684-2.406-0.748c-0.204-0.019-0.363-0.045-0.471-0.068  C79.232,30.204,81.026,29.203,82.079,28.708z M71.382,35.686c-0.626,0.638-0.633,0.638-0.992,0.556  c-1.026-0.245-3.171-0.45-5.598-0.535c-0.176-0.005-0.337-0.011-0.485-0.017c0.192-0.002,0.403-0.004,0.636-0.005  c1.472-0.009,6.183-0.255,6.625-0.457l0.001,0.002c0.025-0.01,0.137-0.028,0.273-0.029C71.746,35.314,71.562,35.502,71.382,35.686z   M44.874,18.699c1.873,1.249,4.605,4.514,6.644,7.941c1.025,1.725,2.367,3.765,2.708,4.119c0.195,0.207,0.488,0.429,0.669,0.429  c0.167,0,0.248-0.08,0.286-0.147c0.109-0.191,0.09-0.57-0.78-2.037c-1.787-3.021-4.249-8.116-5.066-10.485  c-0.72-2.08-1.161-6.083-0.857-7.788l0.038-0.206l0.444,0.47c1.044,1.103,2.277,3.257,3.47,6.066  c1.178,2.779,2.914,8.765,3.439,11.86c0.079,0.476,0.234,1.245,0.329,1.402c0.046,0.097,0.099,0.193,0.202,0.221  c0.111,0.032,0.214-0.033,0.347-0.124c0.444-0.295,0.45-0.986,0.03-3.361c-0.738-4.082-1.013-7.242-0.919-10.565  c0.046-1.869,0.114-2.518,0.423-4.087c0.516-2.565,1.138-4.514,1.391-4.898c0.136,0.257,0.439,1.025,0.608,1.624  c0.058,0.218,0.26,1.241,0.435,2.232c0.614,3.636,0.503,9.429-0.259,13.474c-0.818,4.407-0.882,5.237-0.717,5.428  c0.122,0.144,0.3,0.221,0.486,0.201c0.173-0.018,0.32-0.115,0.404-0.268c0.086-0.156,0.452-1.748,0.662-2.714  c1.657-7.504,3.045-12.139,4.643-15.498c0.434-0.915,2.372-3.808,3.241-4.837l0.158-0.188l0.023,0.621  c0.024,0.512-0.073,1.871-0.211,2.966v0.001c-0.446,3.798-1.569,6.758-5.726,15.082c-1.154,2.319-2.212,4.549-2.267,4.783  c-0.044,0.284-0.053,0.494,0.233,0.608c0.414,0.157,0.928-0.498,1.902-2.397c2.241-4.34,3.729-6.619,6.371-9.752  c2.259-2.67,4.028-4.289,6.528-5.975c0.428-0.295,1.468-0.848,1.857-1.022c-0.214,0.688-1.467,3.353-2.234,4.559  c-1.493,2.361-6.207,8.02-9.701,11.645c-3.153,3.263-3.341,3.483-3.341,3.924c0,0.318,0.063,0.479,0.408,0.479  c0.202,0,0.575-0.253,1.882-1.547c2.741-2.706,7.507-6.286,10.408-7.817c2.092-1.117,4.455-1.924,6.321-2.159  c0.129-0.018,0.326-0.045,0.429-0.047c-0.002,0.006-0.005,0.013-0.007,0.021c-0.462,1.223-2.566,3.451-4.595,4.865  c-2.353,1.642-4.722,3.027-7.456,4.358c-6.605,3.193-6.859,3.356-6.859,3.678c0,0.116,0.039,0.204,0.115,0.261  c0.229,0.171,0.759,0.067,2.974-0.59c2.024-0.612,6.675-1.641,9.216-2.039c0.563-0.09,1.9-0.21,2.996-0.247  c1.573-0.06,2.119-0.035,2.921,0.127c0.449,0.096,0.786,0.185,0.942,0.231c-0.327,0.279-1.638,1.026-2.627,1.42  c-1.156,0.469-3.75,1.147-5.665,1.48c-1.824,0.308-5.635,0.588-7.996,0.588c-1.807,0-2.417,0.073-2.611,0.311  c-0.063,0.077-0.083,0.17-0.062,0.274c0.088,0.486,0.564,0.58,3.636,0.716c1.532,0.068,3.413,0.208,4.107,0.306  c2.045,0.295,4.735,1.313,6.693,2.532l0.982,0.611l-0.433,0.132c-0.936,0.281-2.778,0.369-4.379,0.208  c-2.146-0.212-3.751-0.691-7.805-2.329c-1.213-0.485-2.636-1.009-2.991-1.024c-0.251-0.012-0.412-0.018-0.513,0.077  c-0.084,0.08-0.091,0.196-0.091,0.319c0,0.447,0.65,0.947,2.674,2.058c1.992,1.09,3.699,2.23,4.567,3.051l0.542,0.515l-1.671,0.404  c-1.557,0.377-1.555,0.377-2.276-0.173l-1.096-0.819l0.334-0.501c0.305-0.439,0.424-0.757,0.424-1.134v-0.629l-0.597,0.092  c-0.282,0.027-0.838,0.22-1.221,0.389l-0.645,0.296l-0.85-0.784c-0.52-0.459-1.053-0.972-1.206-1.135  c-0.572-0.631-2.387-2.083-2.988-2.389c-0.105-0.053-0.643-0.312-0.878-0.218c-0.453,0.167-2.658,5.315-2.751,5.533  c-0.601,1.391-1.078,2.748-1.458,4.149c-0.295,1.079-0.573,1.97-0.771,2.54c0.106-0.741,0.277-1.83,0.364-2.245  c0.397-1.867,1.195-3.904,2.847-7.267c0.434-0.88,1.437-2.949,1.392-3.146c-0.04-0.231-0.382-0.542-2.689-0.893  c-0.759-0.121-2.471-0.464-3.816-0.766c-1.361-0.32-3.031-0.696-3.722-0.839c-0.706-0.148-1.409-0.333-1.593-0.405l-0.272-0.119  l0.128-0.375c0.089-0.256,0.184-0.634,0.184-0.832c0-0.117,0-0.237-0.088-0.313c-0.1-0.086-0.242-0.069-0.554-0.022  c-0.273,0.047-0.838,0.222-1.288,0.396l-0.714,0.286l-0.563-0.292c-0.622-0.328-1.532-0.976-1.789-1.221  c0.112-0.04,0.323-0.097,0.619-0.152c1.431-0.239,3.889,0.176,6.573,1.117c1.988,0.687,4.277,1.556,4.996,1.874  c0.287,0.127,1.73,0.749,2.066,0.546c0.14-0.089,0.153-0.208,0.148-0.271c-0.019-0.273-0.415-0.758-3.328-2.085  c-5.698-2.614-7.309-3.528-9.07-5.149l-0.421-0.391l0.466-0.007c0.01,0,0.019,0,0.029,0c3.02,0,6.866,1.829,10.834,5.154  c1.59,1.334,2.043,1.526,2.296,1.412c0.117-0.055,0.176-0.176,0.176-0.362c0-0.423-0.296-0.732-3.17-3.305  c-3.772-3.384-4.977-4.812-6.786-8.043c-0.687-1.232-1.333-2.667-1.45-3.075C43.013,17.737,44.191,18.255,44.874,18.699z   M67.76,39.777l-0.316,0.401c-0.179,0.213-0.334,0.415-0.412,0.516c-0.075-0.037-0.22-0.121-0.425-0.267  c-0.791-0.546-1.914-1.214-3.247-1.932c-0.742-0.392-1.419-0.803-1.801-1.063c0.184,0.064,0.384,0.142,0.481,0.179  c2.188,0.875,5.292,2.066,5.586,2.13L67.76,39.777z M67.333,45.061c-0.848,0.671-2.937,1.944-4.298,2.619  c-1.867,0.915-4.769,2.194-5.448,2.401c-0.454,0.142-1.019,0.371-1.127,0.652c-0.032,0.083-0.025,0.165,0.021,0.245  c0.176,0.264,0.429,0.199,2.116-0.376c3-1.02,4.966-1.434,8.093-1.706c1.506-0.128,4.099-0.045,4.711,0.071  c-0.282,0.223-1.2,0.687-2.249,1.043c-1.531,0.53-4.568,1.203-6.372,1.411c-0.824,0.095-2.516,0.176-3.693,0.176  c-1.869,0-2.145,0.01-2.266,0.155c-0.063,0.076-0.046,0.164-0.042,0.19c0.049,0.306,0.049,0.306,2.524,0.751l0.21,0.038  c3.312,0.585,5.906,1.921,8.674,4.467l0.331,0.305l-0.605-0.038c-1.595-0.093-3.422-0.79-7.519-2.867  c-0.368-0.187-3.603-1.82-3.799-1.82c-0.157,0-0.255,0.051-0.292,0.151c-0.092,0.258,0.263,0.691,2.703,2.703  c1.53,1.261,2.976,3.118,3.517,4.517c0.262,0.689,0.487,1.422,0.561,1.741c-0.569-0.257-2.474-1.361-3.024-1.79  c-1.342-1.036-2.839-2.954-4.004-5.131c-0.691-1.283-0.844-1.556-1.046-1.585c-0.116-0.016-0.199,0.064-0.239,0.104  c-0.143,0.144-0.115,0.497,0.333,2.302c0.761,3.115,0.771,4.919,0.04,6.893l-0.207,0.566l-0.072-0.143  c-0.308-0.604-1.157-3.529-1.298-4.469c-0.059-0.471-0.141-1.798-0.165-2.95c-0.02-0.98-0.063-2.167-0.155-2.258  c-0.054-0.054-0.108-0.068-0.15-0.068c-0.02,0-0.037,0.003-0.05,0.007c-0.194,0.053-0.333,0.357-0.776,2.054  c-0.575,2.228-0.849,3.038-1.467,4.333c-0.494,1.019-0.847,1.498-0.992,1.605c-0.027-0.154-0.058-0.574-0.058-1.231  c0.012-1.936,0.459-3.737,1.452-5.838c0.487-1.008,0.515-1.019,0.979-1.188c1.368-0.484,3.286-1.949,3.799-2.904  c0.122-0.225,0.23-0.482,0.112-0.681c-0.123-0.206-0.436-0.282-1.155-0.282c-0.881,0-1.655,0.194-2.357,0.591  c0.109-0.133,0.232-0.281,0.338-0.408c0.491-0.566,1.082-1.392,1.347-1.799c0.514-0.833,2.667-2.907,4.265-4.108  c0.99-0.725,2.813-1.812,3.982-2.373c0.53-0.255,0.855-0.384,0.966-0.384c-0.028,0.735-2.44,3.494-5.892,6.313  c-1.789,1.468-1.951,1.723-1.879,1.923c0.033,0.093,0.125,0.141,0.27,0.141c0.199,0,2.893-1.559,2.919-1.575  c3.255-1.864,5.102-2.76,6.812-3.307c1.381-0.438,2.757-0.747,3.14-0.768C68.71,43.747,68.06,44.469,67.333,45.061z M69.355,43.902  c0.092,0.1,0.28,0.338,0.655,0.901c0.305,0.458,0.411,0.661,0.443,0.752c-0.3-0.021-1.394-0.251-1.875-0.43l-0.167-0.065l0.416-0.48  C69.154,44.201,69.294,44.008,69.355,43.902z M72.854,49.499l0.679-0.009l-0.16,0.253l0,0c-0.935,1.487-1.928,4.083-2.26,5.912  c-0.108,0.587-0.236,1.8-0.308,2.704c-0.008-0.246-0.016-0.519-0.023-0.819c-0.048-1.752-0.134-2.884-0.263-3.459  c-0.182-0.814-0.778-2.913-0.953-3.389c-0.015-0.032-0.015-0.046-0.014-0.048c0.003-0.007,0.029-0.047,0.226-0.112  c0.196-0.07,0.774-0.327,1.289-0.584C71.873,49.549,72.073,49.499,72.854,49.499z M66.596,54.95c-0.14-0.077-0.372-0.22-0.651-0.416  c-1.744-1.155-3.578-1.917-5.593-2.322c1.396-0.017,2.998-0.181,4.637-0.473c0.192-0.035,0.363-0.068,0.515-0.097  c0.515-0.1,0.824-0.161,0.936-0.071c0.119,0.097,0.123,0.466,0.129,1.079c0.002,0.17,0.004,0.36,0.009,0.575  C66.595,54.008,66.599,54.657,66.596,54.95z M67.692,60.261c0.244,0.762,0.388,1.224,0.458,1.459  c-0.38-0.165-1.295-0.606-2.608-1.278l-2.816-1.438l-0.561-0.824c-0.873-1.287-1.834-2.326-3.46-3.722l0.878,0.457  c0.577,0.3,1.281,0.667,1.9,0.99l0.001,0c1.67,0.859,4.35,1.937,5.31,2.136c0.186,0.037,0.254,0.105,0.293,0.299  C67.135,58.515,67.39,59.366,67.692,60.261z M63.774,61.552c-0.058-0.167-0.095-0.295-0.117-0.384  c0.68,0.293,3.234,1.633,3.742,1.965c-0.175,0.152-0.665,0.506-1.354,0.938c-1.907,1.182-4.113,2.823-5.133,3.818l-0.725,0.703  l-1.864-0.625c-2.05-0.687-2.767-0.83-6.976-1.387l-0.498-0.068l1.724-0.037c3.702-0.084,5.116-0.216,6.873-0.641  c1.919-0.45,4.269-1.405,4.422-1.961c0.026-0.092,0.002-0.18-0.07-0.25c-0.167-0.146-5.635-0.611-6.487-0.657l-0.366-0.016  c-0.557-0.024-0.997-0.042-1.047-0.121c-0.029-0.046,0.057-0.254,0.141-0.455l0.083-0.204c0.106-0.252,0.238-1.008,0.304-1.593  c0.144-1.319,0.056-2.158-0.428-4.083c-0.05-0.193-0.096-0.373-0.135-0.532c0.081,0.138,0.156,0.266,0.199,0.34  c0.326,0.592,0.898,1.448,1.276,1.907c1.558,1.95,2.737,2.904,5.045,4.082c0.897,0.467,1.266,0.565,1.466,0.395  C64.05,62.516,63.969,62.126,63.774,61.552z M49.095,61.535c0.084,0.403,0.206,0.636,0.383,0.732  c0.115,0.063,0.25,0.066,0.398,0.009c0.605-0.234,2.208-3.327,2.685-4.969l0.055-0.186c0.063,1.291,0.734,4.13,1.363,5.734  c-0.166,0.059-0.87,0.085-1.613,0.112c-1.545,0.048-2.137,0.127-3.955,0.534c-1.169,0.26-2.283,0.532-2.49,0.61  c-0.082,0.036-0.153,0.059-0.206,0.072c0.136-0.566,1.108-3.073,1.832-4.554c0.483-0.983,1.549-2.841,2.269-4.021  C49.101,57.43,48.766,60.02,49.095,61.535z M42.762,59.764c0.057,0.133,0.209,0.23,0.363,0.23c0.443,0,1.769-0.821,2.908-1.644  c-0.052,0.129-0.131,0.308-0.235,0.534c-0.727,1.583-1.185,2.817-1.484,4.002c-0.11,0.467-0.222,0.821-0.282,0.964  c-0.133-0.056-0.42-0.189-0.767-0.362c-0.953-0.482-3.48-1.476-5.753-2.261l-1.441-0.508l0.774-0.685  c0.513-0.455,1.188-1.083,1.502-1.396c0.46-0.438,0.669-0.554,1.179-0.653c2.221-0.454,3.782-1.213,6.189-3.009  c0.006-0.004,0.012-0.009,0.019-0.014c-1.065,0.878-1.863,1.733-2.165,2.325C43.262,57.898,42.671,59.492,42.762,59.764z   M44.213,58.801c-0.279,0.144-0.49,0.239-0.616,0.29c0.083-0.357,0.459-1.301,0.753-1.762c0.398-0.598,0.997-1.178,2.371-2.298  c0.741-0.601,0.956-0.853,0.956-1.125c0-0.183-0.079-0.332-0.222-0.418c-0.09-0.055-0.202-0.082-0.326-0.082  c-0.178,0-0.381,0.055-0.587,0.163c-0.227,0.108-0.766,0.49-1.252,0.889c-1.158,0.94-1.812,1.363-2.914,1.885  c-1.405,0.656-2.924,1.04-4.392,1.11l-0.886,0.042l0.149-0.132c1.939-1.751,4.041-2.72,7.498-3.453  c1.854-0.387,2.383-0.574,2.318-1.061c-0.068-0.49-0.775-0.489-2.241-0.308c-1.865,0.242-3.72,0.183-5.088-0.163  c-1.608-0.419-3.96-1.644-4.415-2.298c-0.024-0.036-0.051-0.076-0.068-0.104c0.065-0.027,0.21-0.064,0.371-0.105  c0.282-0.065,1.373-0.139,2.487-0.139c0.091,0,0.179,0,0.264,0c2.434,0,3.029,0.18,6.02,1.652c1.633,0.812,2.152,0.988,2.418,0.824  c0.159-0.099,0.159-0.293,0.159-0.357c0-0.349-0.268-0.56-1.415-1.309c-2.876-1.875-4.323-3.368-5.732-5.918  c-0.538-0.97-0.936-1.919-1.026-2.279c0.165,0.09,0.465,0.27,0.849,0.52c1.272,0.82,3.879,3.484,5.47,5.59  c1.607,2.12,2.073,2.616,2.4,2.529c0.183-0.049,0.232-0.268,0.255-0.453c0.029-0.248-0.145-0.621-0.53-1.138  c-2.265-3.19-2.997-4.563-3.403-6.39c-0.3-1.313-0.411-3.102-0.248-3.986l0.055-0.288l0.191,0.159  c0.888,0.749,1.721,2.015,2.623,3.982c0.972,2.109,1.325,3.366,1.513,5.38c0.146,1.341,0.239,2.029,0.298,2.224  c0.086,0.344,0.267,0.571,0.496,0.623c0.195,0.045,0.402-0.046,0.573-0.255c0.23-0.284,0.254-0.469,0.181-1.411  c-0.047-0.563-0.212-1.733-0.368-2.61c-0.641-3.458-0.8-5.991-0.473-7.53c0.188-0.877,0.39-1.491,0.504-1.719  c0.087,0.162,0.246,0.488,0.428,0.914c0.535,1.296,0.834,2.322,1.066,3.657c0.175,1.019,0.163,1.188-0.048,3.104  c-0.15,1.188-0.357,2.75-0.483,3.56c-0.003,0.015-0.263,1.543-0.183,1.73c0.021,0.056,0.086,0.227,0.245,0.232  c0.18-0.006,0.347-0.161,0.788-1.098c1.912-4.108,2.445-4.985,4.075-6.708l0.768-0.82l-0.05,0.302  c-0.105,0.68-0.702,2.322-1.204,3.315c-0.524,1.037-1.673,2.644-2.732,3.821c-0.046,0.05-1.119,1.231-1.119,1.477  c0,0.163,0.089,0.236,0.142,0.265c0.082,0.045,0.33,0.18,1.408-0.514c0.976-0.628,1.766-0.882,2.666-0.83l0.404,0.021l-0.569,0.569  c-1.257,1.27-2.713,2.021-4.207,2.171c-0.406,0.036-0.864,0.119-1.026,0.173c-0.302,0.116-1.293,1.602-1.405,1.771  C46.855,56.623,45.349,58.199,44.213,58.801z M37.261,52.236c2.096,1.037,3.613,1.272,7.256,1.028  c-1.996,0.482-3.689,1.086-5.168,1.842l-1.458,0.747l-2.755,0.457c-2.037,0.34-3.189,0.526-3.575,0.564  c0.082-0.185,0.241-0.533,0.462-1.001c0.974-2.042,1.075-2.743,1.075-7.491c0-2.21,0.011-3.48,0.023-3.909  c0.103,0.048,0.241,0.114,0.363,0.172c1.179,0.602,3.327,2.166,4.788,3.487l0.909,0.823l-1.479,0.068  c-2.913,0.117-3.309,0.555-3.354,0.874C34.263,50.456,36,51.601,37.261,52.236z M47.021,37.945l0.116,0.401  c0.016,0.055,0.031,0.109,0.047,0.163c-0.39-1.143-0.927-2.591-1.499-4.035l-0.149-0.362l0.123,0.036  c0.134,0.031,0.255,0.074,0.315,0.098c0.033,0.113,0.116,0.419,0.204,0.74l0.05,0.184C46.354,35.632,46.697,36.821,47.021,37.945z   M46.747,34.404c0.039,0.002,0.093,0.009,0.159,0.025c0.181,0.049,1.214,0.276,2.274,0.498c1.025,0.214,2.716,0.547,3.77,0.732  c0.941,0.166,1.57,0.312,1.756,0.381c-0.022,0.082-0.091,0.263-0.25,0.582c-1.011,1.875-1.823,3.52-2.413,4.884  c-0.268,0.6-0.458,0.981-0.574,1.188c-0.04-0.197-0.093-0.469-0.133-0.674c-0.366-2.11-1.141-4.26-1.847-5.114  c-0.143-0.162-0.299-0.34-0.474-0.34c-0.063,0-0.128,0.023-0.196,0.079c-0.254,0.209-0.63,1.309-0.741,1.918  c-0.011,0.07-0.024,0.132-0.036,0.187C47.727,37.842,46.868,34.975,46.747,34.404z M46.465,38.55  c0.688,2.144,1.384,4.992,1.84,7.349c-0.145-0.579-0.345-1.152-0.671-2.013c-1.111-2.916-2.346-4.861-3.67-5.784  c-0.45-0.312-0.578-0.382-0.844-0.116c-0.212,0.212-0.238,0.466-0.226,2.262c0.012,1.688,0.057,2.131,0.323,3.16  c0.292,1.082,0.842,2.29,1.615,3.555c-1.472-1.866-2.734-3.098-4.29-4.232c-1.532-1.119-2.016-1.189-2.246-1.146  c-0.102,0.019-0.184,0.072-0.235,0.152c-0.296,0.46,1.123,3.337,1.973,4.613c1.269,1.864,2.586,3.143,4.582,4.418  c-0.137-0.066-0.281-0.136-0.433-0.209c-2.001-0.978-2.151-1.074-3.191-2.067c-1.688-1.642-3.623-3.143-6.089-4.727  c-0.463-0.291-0.799-0.541-0.928-0.658c0.172-0.146,0.651-0.519,1.314-1.014c2.635-1.971,4.878-4.059,6-5.587  c0.289-0.397,0.813-1.267,1.167-1.94c0.306-0.591,0.543-0.994,0.632-1.125c0.123,0.03,0.416,0.11,0.779,0.218  c0.649,0.201,0.801,0.31,0.906,0.519C45.095,34.773,46.114,37.438,46.465,38.55z M48.58,47.438c0.127,0.793,0.211,1.473,0.236,1.971  c-0.056-0.427-0.109-0.893-0.136-1.124C48.646,47.97,48.613,47.691,48.58,47.438z M56.291,41.117  c-0.011-0.002-0.022-0.003-0.034-0.003c-0.58,0-2.819,2.541-3.675,3.92c-0.042,0.068-0.082,0.131-0.12,0.189  c0.269-0.807,0.867-2.383,1.545-3.958c1.199-2.77,1.923-4.214,2.139-4.293c0.071,0.005,0.416,0.172,0.851,0.462  c0.387,0.278,0.968,0.734,1.273,1.016c1.13,1.035,2.436,2.302,2.767,2.666c-0.118,0.062-0.315,0.163-0.554,0.283  c-1.117,0.558-2.884,1.919-4.611,3.551l-0.264,0.251l0.098-0.215c0.425-0.931,0.777-2.24,0.837-3.112  C56.572,41.487,56.595,41.182,56.291,41.117z M63.019,42.796c0.114,0.072,0.382,0.254,0.834,0.586l0.707,0.511l-0.166,0.061  c-0.658,0.223-2.968,1.389-3.979,1.982c-0.446,0.264-1.048,0.609-1.455,0.835c0.36-0.322,0.906-0.812,1.425-1.272  c0.701-0.634,1.646-1.549,2.019-1.996C62.675,43.181,62.914,42.91,63.019,42.796z M39.781,31.95l0.562,0.324l-0.548,0.296  c-1.796,1.001-4.125,3.349-5.881,5.913c1.283-2.85,2.41-6.231,2.759-8.296c0.147-0.798,0.287-2.143,0.333-2.932l0.069-1.254  l0.125,0.102c0.127,0.11,0.515,0.422,0.965,0.783l0.585,0.471c0.771,0.623,1.616,1.306,2.029,1.651l0.558,0.468l-1.132,0.055  c-2.457,0.115-2.457,0.594-2.457,0.751C37.747,30.639,38.951,31.495,39.781,31.95z M45.978,30.417  c0.48,0.21,1.978,0.899,2.596,1.184c0.053,0.024,0.104,0.049,0.156,0.073c-0.909-0.356-1.858-0.717-2.167-0.813  c-0.457-0.14-0.543-0.227-0.574-0.373C45.983,30.462,45.98,30.438,45.978,30.417z M45.552,24.77v-0.438l0.295,0.396  c0.3,0.396,1.301,1.456,2.232,2.363l0,0c0.736,0.708,1.775,1.678,2.492,2.315c-1.42-1.081-2.809-1.979-3.978-2.564  C45.552,26.321,45.552,26.321,45.552,24.77z M36.147,14.88c-0.753-2.063-1.23-3.92-1.457-5.673  c-0.031-0.285-0.063-0.554-0.085-0.748c0.118,0.108,0.289,0.27,0.521,0.496c0.44,0.44,1.175,1.359,1.637,2.047  c2.671,3.977,4.748,8.609,5.696,12.709c0.31,1.314,0.395,1.572,0.665,1.572c0.048,0,0.16,0,0.23-0.092  c0.117-0.153,0.062-0.402-0.298-1.73c-1.659-6.209-2.239-9.163-2.215-11.287c0.017-0.917,0.071-1.268,0.109-1.401  c0.563,0.748,2.077,4.088,2.587,5.722c0.1,0.318,0.203,0.646,0.214,0.773c-0.065-0.017-0.176-0.063-0.237-0.089  c-0.269-0.107-0.707-0.178-0.965-0.15c-0.5,0.038-0.615,0.09-0.6,0.52c0.026,0.564,1.065,2.727,1.977,4.284  c0.874,1.48,0.998,1.933,1.021,3.726c0,0.128,0,0.374-0.018,0.479c-0.003-0.001-0.005-0.002-0.008-0.004  c-0.294-0.127-2.834-0.743-3.394-0.823c-0.354-0.059-0.375-0.063-1.813-2.572C37.888,19.473,37.621,18.893,36.147,14.88z   M30.999,18.089c-1.042-1.58-2.514-4.606-2.687-5.281c0.102,0.04,0.26,0.106,0.449,0.197c1.911,0.98,5.594,4.226,7.299,6.433  c0.479,0.635,3.358,4.895,3.864,5.708c-0.044,0.003-0.099,0.006-0.164,0.006c-0.092,0-0.373,0-0.451,0.199  c-0.083,0.208,0.061,0.519,1.026,1.421c1.065,1.007,2.484,2.003,3.995,2.807c0.733,0.384,0.854,0.503,0.891,0.709  c0.008,0.058,0.011,0.096,0.011,0.121c0,0-0.001,0-0.002-0.001c-0.093-0.021-0.641-0.167-1.366-0.365  c-1.112-0.289-1.173-0.323-2.193-1.189c-0.596-0.512-1.73-1.442-2.482-2.045l-0.615-0.493c-1.549-1.239-1.549-1.239-1.621-2.179  c-0.009-0.113-0.019-0.24-0.032-0.383c-0.065-0.683-0.205-1.627-0.335-2.031c-0.156-0.529-0.325-0.771-0.565-0.807  c-0.02-0.003-0.039-0.004-0.059-0.004c-0.286,0-0.606,0.312-1.111,1.073c-0.162,0.247-0.301,0.438-0.375,0.533  C34.024,22.117,31.881,19.424,30.999,18.089z M20.451,60.752c0.103-0.584,0.367-1.278,1.231-3.23  c1.335-3.06,2.853-5.284,6.497-9.519c0.687-0.792,1.477-1.763,1.587-1.996c0.182-0.346,0.242-0.742,0.149-0.984  c-0.053-0.137-0.14-0.194-0.203-0.218c-0.087-0.034-0.171-0.051-0.255-0.051c-0.423,0-0.865,0.449-1.812,1.6  c-2.253,2.77-4.108,4.631-6.616,6.64c-1.813,1.441-2.731,2.053-4.465,2.973c-1.499,0.772-2.122,1.049-3.365,1.396l-0.533,0.146  l0.292-0.428c1.23-1.804,3.322-4.169,4.866-5.5c2.226-1.91,5.67-4.352,8.375-5.937c1.489-0.871,1.993-1.255,2.074-1.58  c0.025-0.102,0.01-0.201-0.048-0.295c-0.365-0.578-1.116-0.301-3.821,1.414c-0.822,0.521-2.328,1.398-3.357,1.956  c-4.307,2.324-7.237,3.533-9.501,3.918c-1.074,0.186-2.779,0.227-3.16,0.147c0.133-0.266,0.808-1.043,1.356-1.471  c1.215-0.929,2.858-1.917,4.749-2.856c2.358-1.155,4.332-1.809,9.598-3.179c1.523-0.39,2.999-0.768,3.273-0.839  c0.49-0.134,0.835-0.372,0.901-0.621c0.031-0.117-0.001-0.231-0.09-0.32c-0.178-0.178-0.62-0.3-2.549,0.156  c-2.838,0.678-7.855,1.202-10.533,1.095c-2.973-0.106-4.758-0.395-6.822-1.103c-0.769-0.27-2.117-0.866-2.531-1.096  c0.146-0.084,0.412-0.222,0.76-0.384c1.578-0.742,3.187-0.957,7.172-0.957c3.766,0,3.766,0,8.854,0.983l0.095,0.018  c4.934,0.951,5.082,0.974,5.36,0.882c0.167-0.051,0.299-0.188,0.354-0.368c0.058-0.185,0.023-0.382-0.086-0.517  c-0.135-0.203-2.866-1.137-3.7-1.419c-2.015-0.68-4.241-1.487-5.067-1.838c-1.889-0.813-5.193-2.497-6.094-3.105  c-1.49-1.024-2.78-2.344-4.184-4.279l-0.637-0.882l0.241-0.018c1.071-0.112,4.84,0.901,6.973,1.855  c2.575,1.156,4.03,2.14,9.159,6.194c3.345,2.633,3.562,2.79,3.855,2.79c0.147,0,0.274-0.077,0.35-0.212  c0.108-0.194,0.091-0.47-0.041-0.685c-0.114-0.195-0.725-0.729-1.067-1.014c-2.499-2.053-6.083-5.995-7.672-8.437  c-0.423-0.646-1.098-1.832-1.503-2.643c-0.759-1.555-1.758-4.406-1.758-4.88v-0.118l0.326,0.159c0.652,0.333,1.54,1.029,2.876,2.259  c2.128,1.964,3.828,4.04,5.196,6.347c0.731,1.238,2.493,4.65,3.228,6.316c0.706,1.575,1.126,2.108,1.583,2.056  c0.344-0.044,0.43-0.153,0.416-0.533c-0.015-0.244-0.311-1.053-0.589-1.695c-2.12-4.872-2.674-6.396-3.488-9.59  c-0.438-1.766-0.493-2.145-0.586-4.048c-0.048-1.174-0.059-2.427-0.024-2.792c0.019-0.184,0.036-0.341,0.052-0.432  c0.016,0.013,0.032,0.026,0.047,0.039c0.11,0.101,0.454,0.551,0.77,1.039h0c1.201,1.831,2.185,4.269,2.923,7.247  c0.636,2.555,0.837,3.92,1.023,6.954c0.087,1.487,0.218,3.123,0.301,3.374c0.109,0.328,0.398,0.649,0.672,0.747  c0.162,0.057,0.274,0.021,0.334-0.016c0.143-0.08,0.207-0.228,0.099-2.688c-0.235-5.539-0.11-7.104,0.785-9.85  c0.467-1.46,0.921-2.371,1.945-3.9l0.036-0.053c0.456-0.681,0.73-1.091,0.844-1.204c0.003,0.005,0.007,0.011,0.009,0.015  c0.12,0.188,0.294,0.832,0.441,2.835c0.137,1.727-0.065,4.467-0.47,6.375c-0.334,1.553-1.253,4.286-2.047,6.091  c-1.125,2.57-1.238,2.923-1.012,3.149c0.115,0.115,0.234,0.157,0.368,0.151c0.33-0.033,0.706-0.447,1.548-1.705  c1.646-2.451,3.798-4.532,5.908-5.711c0.712-0.407,1.964-0.916,2.308-0.97c-0.009,0.14-0.146,0.55-0.665,1.647  c-1.397,2.97-3.239,4.923-7.883,8.358c-1.111,0.825-1.395,1.064-1.422,1.3c-0.014,0.12,0.048,0.209,0.104,0.275  c0.092,0.106,0.262,0.218,0.38,0.218c0.001,0,0.002,0,0.003,0c0.236,0.064,2.695,1.654,3.982,2.599  c1.082,0.782,2.948,2.451,3.411,2.949c-0.043-0.01-0.093-0.023-0.149-0.042c-0.17-0.051-0.805-0.501-1.794-1.366  c-2.278-2.046-5.602-4.347-6.225-4.095c-0.244,0.104-0.257,0.277-0.206,2.645c0.071,2.774-0.062,5.687-0.316,6.926  c-0.094,0.469-0.329,1.254-0.525,1.751c-0.516,1.358-1.324,2.567-1.583,2.715c-0.107-0.331-0.301-2.106-0.301-3.25  c0-2.084,0.196-2.986,1.398-6.429c0.654-1.878,0.713-2.251,0.418-2.667c-0.042-0.054-0.174-0.222-0.353-0.196  c-0.291,0.037-0.544,0.464-1.231,2.076c-1.427,3.338-3.516,6.917-6.042,10.353c-1.368,1.852-2.119,2.585-3.216,3.14l-0.293,0.153  L20.451,60.752z M29.168,57.08l0.048,0.179l-2.29,0.469c-1.164,0.237-2.239,0.471-2.558,0.55c0.149-0.272,0.572-0.857,0.772-1.134  c1.867-2.592,4.174-6.639,5.404-9.438c-0.09,0.282-0.197,0.61-0.324,0.99c-0.414,1.241-0.895,2.837-0.984,3.358  C29.071,52.965,29.022,56.486,29.168,57.08z M20.918,64.224c-3.447,1.028-7.125,1.528-8.938,1.213l-0.229-0.041l0.259-0.267  c0.932-0.92,2.87-2.341,4.319-3.168c0.622-0.358,3.04-1.444,3.658-1.669c-0.012,0.104-0.038,0.272-0.088,0.529  c-0.061,0.27-0.145,0.74-0.025,0.86c0.339,0.336,2.302-1.042,3.032-1.734c0.595-0.567,1.075-0.914,1.184-0.937  c0.457-0.114,4.439-0.965,4.906-1.061c0.257-0.053,0.257-0.053,0.362,0.314c0.102,0.35,0.266,0.55,0.451,0.55  c0.247,0,0.856-0.65,0.883-0.678l0.571-0.616l2.849-0.36c1.655-0.221,2.39-0.328,2.722-0.384c-0.023,0.024-0.049,0.05-0.076,0.077  l-0.002,0.002c-0.208,0.221-0.422,0.533-0.479,0.704c-0.084,0.321,0.047,0.437,0.334,0.549c0.2,0.08,0.649,0.115,0.977,0.079  l0.233-0.019l-0.802,0.749c-0.554,0.531-1.217,1.114-1.43,1.289l-0.341,0.259l-0.911-0.233c-1.606-0.399-2.825-0.509-5.026-0.464  c-1.726,0.024-2.139,0.07-2.328,0.259c-0.122,0.116-0.177,0.242-0.165,0.374c0.022,0.227,0.232,0.449,0.728,0.768  c0.218,0.137,0.377,0.249,0.464,0.317C27.361,61.896,23.162,63.551,20.918,64.224z M23.377,68.335  c-0.542,0.348-0.822,0.567-0.847,0.804c-0.016,0.146,0.067,0.256,0.141,0.333c-0.025,0.029-0.099,0.09-0.31,0.203  c-1.298,0.66-4.777,1.831-6.103,2.054l-0.22,0.036l0.19-0.279c0.97-1.407,4.005-3.772,8.547-6.66  c0.776-0.498,3.338-2.145,3.725-2.424l0.47-0.345l1.337,0.663c0.013,0.006,1.16,0.57,1.542,0.679  c-0.26,0.252-1.15,0.888-2.056,1.527c-1.612,1.145-2.106,1.429-3.111,1.791C25.294,67.224,24.49,67.617,23.377,68.335z   M32.163,64.053c0.119-0.09,0.228-0.175,0.317-0.244c0.076-0.059,0.137-0.106,0.174-0.134c0.089,0.028,0.292,0.098,0.506,0.171  l0.314,0.108h0c1.071,0.364,3.059,0.847,4.431,1.088l-0.566,0.003c-3.224,0.024-5.792,0.288-7.663,0.791  c-0.007,0.002-0.013,0.003-0.02,0.005c0.192-0.138,0.467-0.328,0.801-0.559l0.048-0.033C31.089,64.845,31.857,64.297,32.163,64.053z   M59.956,72.683c-0.98,0.446-1.929,0.756-2.167,0.756c-0.016,0-0.029,0-0.039-0.001c0.002-0.009,0.006-0.021,0.011-0.035  c0.04-0.089,0.145-0.366,0.254-0.655l0.066-0.174c0.208-0.489,0.304-0.524,0.322-0.526c0.059,0,0.414,0.07,1.221,0.268l0.723,0.185  L59.956,72.683z M57.923,71.132c-0.449-0.153-1.913-0.649-3.247-1.099c-1.336-0.449-3.394-1.19-4.587-1.651  c-2.009-0.78-2.628-0.944-2.888-0.769c-0.085,0.058-0.128,0.149-0.128,0.271c0,0.39,0.626,0.904,3.349,2.748  c4.052,2.729,5.495,3.976,7.718,6.669c1.709,2.092,3.114,4.303,3.197,4.742c-0.415-0.034-2.438-1.128-4.336-2.524  c-2.156-1.617-5.06-4.564-7.226-7.333c-2.153-2.733-2.566-3.166-2.92-3.091c-0.148,0.029-0.244,0.094-0.292,0.199  c-0.102,0.224,0.029,0.576,0.538,1.45c1.053,1.832,5.162,10.004,5.636,11.211c0.975,2.46,1.656,5.374,1.656,7.085v0.583  l-0.115-0.075c-0.528-0.337-1.414-1.568-2.104-2.927c-1.916-3.725-3.159-7.068-4.749-12.774c-0.416-1.488-0.916-3.179-1.068-3.535  c-0.223-0.514-0.323-0.679-0.697-0.629c-0.419,0.051-0.416,0.222-0.405,0.79c0.025,0.67,0.383,2.651,1.065,5.888  c0.591,2.847,0.85,4.542,0.99,6.477c0.231,3.04-0.162,6.001-1.138,8.565c-0.427,1.136-0.597,1.343-0.64,1.366  c-0.132-0.195-0.531-2.473-0.688-4.108c-0.408-4.274-0.425-6.364-0.118-13.974c0.168-4.14,0.153-4.81-0.425-4.886  c-0.034-0.005-0.068-0.009-0.102-0.009c-0.065,0-0.131,0.014-0.192,0.059c-0.19,0.143-0.25,0.482-0.474,2.146  c-0.704,5.24-1.455,9.451-2.063,11.552c-0.751,2.583-2.098,5.254-3.602,7.146l-0.453,0.566l-0.048-0.207  c-0.165-0.763-0.001-4.222,0.272-5.785c0.344-2.002,1.176-5.235,1.682-6.528c1.075-2.803,2.082-5.18,2.912-6.874  c0.331-0.677,0.958-2.009,0.958-2.203c0-0.168-0.111-0.353-0.223-0.451c-0.102-0.083-0.209-0.113-0.325-0.094  c-0.327,0.061-0.695,0.549-1.575,2.088c-2.611,4.597-4.848,7.709-7.975,11.098c-1.061,1.14-2.934,2.798-3.64,3.222l-0.087,0.047  l0.007-0.021c0.368-1.268,2.075-4.666,3.147-6.27c1.493-2.21,3.34-4.341,7.058-8.14c1.826-1.863,2.196-2.341,2.196-2.838  c0-0.114-0.073-0.222-0.201-0.295c-0.167-0.096-0.434-0.135-0.625-0.025c-0.219,0.129-1.463,1.243-3.328,2.98  c-1.736,1.619-4.71,3.854-6.005,4.514c-1.896,0.971-4.908,1.993-6.715,2.278c-0.198,0.03-0.292,0.031-0.333,0.028  c0.024-0.06,0.107-0.189,0.331-0.464c1.392-1.731,5.583-4.459,10.429-6.79c4.627-2.233,5.6-2.847,5.475-3.457  c-0.022-0.104-0.075-0.18-0.156-0.228c-0.261-0.152-0.805-0.037-2.907,0.618c-2.462,0.758-3.907,1.107-6.443,1.555  c-3.039,0.534-7.09,0.489-7.562,0.051c0.024-0.083,0.431-0.357,0.604-0.474c1.189-0.796,2.622-1.333,5.474-2.048  c2.165-0.529,4.856-0.776,8.47-0.776c2.537,0,3.018-0.185,3.018-0.526c0-0.424-0.452-0.559-1.726-0.726  c-1.452-0.193-1.49-0.202-3.51-0.665l-0.233-0.053c-3.108-0.724-4.349-1.207-6.635-2.583c-0.432-0.256-0.876-0.518-1.054-0.653  c0.004-0.001,0.009-0.002,0.014-0.003c1.03-0.229,4.005-0.06,5.79,0.331c2.158,0.462,7.276,2.368,9.125,3.398  c0.351,0.202,0.849,0.418,1.03,0.418c0.526,0,0.733-0.717,0.855-1.342c0.074-0.409,0.215-0.984,0.315-1.284  c0.624-2.014,2.557-5.827,3.902-7.697c0.59-0.827,0.709-0.893,1.114-0.893h0.204l-0.47,0.651c-2.248,3.084-5.34,9.41-5.171,10.571  c0.014,0.128,0.042,0.257,0.155,0.327c0.156,0.097,0.38,0.041,0.934-0.164c1.411-0.517,6.059-1.35,7.536-1.35h0.796l0.166,0.342  c0.195,0.41,0.405,0.607,0.624,0.582c0.219-0.024,0.382-0.26,0.485-0.704l0.048-0.234l0.788,0.062  c0.494,0.035,1.931,0.18,3.136,0.307c1.173,0.123,2.289,0.221,2.653,0.235l-0.154,0.07c-1.514,0.699-3.091,1.098-5.274,1.335  c-1.976,0.224-5.368,0.328-6.848,0.212c-1.268-0.091-1.813-0.039-2.014,0.189c-0.052,0.059-0.107,0.16-0.078,0.312  c0.084,0.48,0.778,0.681,3.907,1.129c3.26,0.468,4.638,0.742,6.142,1.223c2.581,0.841,4.625,1.926,6.25,3.317  c0.08,0.068,0.208,0.177,0.287,0.254C63.313,72.317,59.626,71.727,57.923,71.132z M64.099,70.848l0.181-0.152  c1.197-1.006,2.438-2.163,3.193-2.97c-1.987,2.864-2.521,3.533-2.663,3.677c-0.074-0.044-0.229-0.153-0.414-0.308L64.099,70.848z   M74.988,53.4c-0.39,1.346-1.196,3.284-2.271,5.458c-0.035,0.07-0.851,1.727-0.851,1.944c0,0.319,0.285,0.609,0.598,0.609  c0.381,0,1.328-1.782,1.859-2.844c0.904-1.819,1.936-3.272,3.247-4.572c1.716-1.716,2.976-2.618,4.648-3.326l0.297-0.129  l-0.018,0.062c-0.405,1.365-2.188,4.304-3.742,6.166c-0.915,1.093-1.85,1.977-3.228,3.051c-2.103,1.628-2.185,1.692-2.185,2.07  c0,0.201,0.065,0.338,0.193,0.407c0.243,0.13,0.672-0.025,1.393-0.502c0.469-0.304,1.087-0.755,1.393-1  c1.122-0.921,4.328-2.958,6.354-4.036c2.144-1.142,4.473-1.923,6.08-2.04c0.214-0.019,0.498-0.045,0.627-0.038  c-0.001,0.003-0.003,0.006-0.005,0.009c-0.248,0.473-2.827,2.832-4.059,3.711c-2.291,1.636-4.156,2.42-7.677,3.227  c-0.905,0.21-1.89,0.504-2.242,0.668c-0.521,0.231-0.727,0.359-0.675,0.684c0.001,0.008,0.002,0.017,0.003,0.025l-0.07,0.031  l0.074-0.009c0.055,0.291,0.278,0.351,0.467,0.37c0.467,0.058,3.209-0.609,5.562-1.255c2.865-0.779,3.873-0.965,5.675-1.046  c1.743-0.072,2.905,0.04,4.593,0.445c0.883,0.213,1.866,0.563,2.153,0.718c-0.098,0.085-0.296,0.238-0.588,0.438  c-0.912,0.607-2.497,1.167-3.858,1.362c-1.517,0.239-4.731,0.213-7.643-0.06c-2.325-0.218-5.1-0.33-5.661-0.112  c-0.195,0.069-0.413,0.19-0.354,0.526c0.073,0.484,0.531,0.6,3.769,0.956c3.76,0.421,6.563,0.833,7.692,1.13  c1.713,0.446,4.141,1.494,5.093,2.199c0.53,0.391,1.208,0.962,1.473,1.215c-0.194,0.048-0.556,0.13-1.08,0.238  c-1.037,0.203-1.491,0.233-2.697,0.175c-2.885-0.141-4.111-0.542-9.374-3.069c-3.668-1.758-4.387-2.061-5.129-2.16  c-0.381-0.044-0.641-0.052-0.745,0.199c-0.134,0.369,0.027,0.484,2.866,2.064c5.577,3.122,9.949,6.454,11.408,8.696  c0.531,0.817,1.067,1.907,1.156,2.226c-0.624-0.057-4.262-1.661-6.06-2.824c-2.143-1.401-4.31-3.403-7.247-6.696  c-1.812-2.049-2.388-2.494-2.81-2.147c-0.115,0.102-0.231,0.276-0.231,0.412c0,0.168,0.614,0.901,1.129,1.487  c3.546,4.037,3.731,4.331,5.059,6.939c1.743,3.463,2.231,5.016,2.372,7.553l0.068,1.313L81.5,84.079  c-1.651-1.288-2.961-3.012-4.25-5.589c-0.855-1.709-2.256-5.103-3.122-7.564c-1.029-2.931-1.057-2.977-1.323-3.426  c-0.185-0.294-0.363-0.429-0.553-0.419c-0.159,0.01-0.293,0.127-0.399,0.352c-0.172,0.385-0.15,0.498,0.597,3.015  c1.458,4.871,1.786,8.948,1.001,12.464c-0.212,0.984-0.815,2.844-1.003,3.268c-0.151-0.222-0.5-0.922-1.037-2.284  c-0.62-1.554-1.184-5.465-1.184-8.206c0-1.557,0.132-2.63,0.671-5.467c0.396-2.117,0.436-2.773,0.183-3.054  c-0.106-0.118-0.247-0.143-0.365-0.143c-0.029,0-0.056,0.001-0.081,0.003c-0.548,0.043-0.715,0.373-1.008,1.485  c-0.393,1.463-1.608,5.103-2.132,6.384c-0.249,0.61-0.728,1.611-1.068,2.23c-0.89,1.614-2.922,4.223-3.377,4.544  c-0.054-0.313-0.011-1.481,0.198-2.954c0.266-1.716,1.072-4.688,1.464-5.395c0.126-0.251,0.327-0.428,0.395-0.44  c0.154-0.029,0.369-0.087,0.453-0.259c0.06-0.122,0.041-0.274-0.063-0.474c-0.121-0.224-0.05-0.337,2.546-4.053l0.024-0.035  c1.122-1.618,1.338-1.994,1.077-2.303c-0.121-0.136-0.31-0.231-0.46-0.231c-0.235,0-1.209,1.036-1.402,1.245  c-1.108,1.205-3.541,3.463-3.786,3.565c0,0-0.001,0-0.001,0c-0.066,0-0.362-0.123-0.704-0.362c-0.362-0.241-0.969-0.574-1.352-0.742  c-0.271-0.123-0.502-0.235-0.619-0.297c0.153-0.203,0.741-0.773,1.757-1.594c1.236-1.01,3.602-2.608,4.964-3.352  c0.907-0.506,1.032-0.703,1.032-0.841c0-0.173-0.183-0.369-2.714-1.635c-2.052-1.015-2.619-1.325-2.701-1.573l-0.003-0.009  l0.724,0.387c4.906,2.651,5.02,2.505,5.057,2.458c0.068-0.051,0.152-0.113-0.287-1.498c-0.236-0.698-0.506-1.614-0.611-2.033  l-0.085-0.345c-0.074-0.298-0.138-0.554-0.165-0.645c-0.001-0.002-0.002-0.005-0.002-0.007c0.105-0.029,0.44-0.029,0.627-0.029  c0.655,0,1-0.01,1.091-0.23c0.1-0.243-0.177-0.547-1.062-1.424l-1.192-1.181l-0.057-1.427c-0.038-0.851-0.033-1.78,0.011-2.115  l0.072-0.555l1.654-0.442l0.345,1.194c0.678,2.279,0.715,2.547,0.797,5.741c0.083,2.856,0.13,3.146,0.306,3.243  c0.167,0.105,0.31,0.125,0.437,0.063c0.313-0.157,0.46-0.806,0.605-2.674c0.222-3.032,1.272-6.424,2.612-8.44  c0.651-0.978,1.278-1.729,1.456-1.88c0.024,0.056,0.058,0.159,0.088,0.31C75.763,49.56,75.521,51.613,74.988,53.4z M80.94,41.843  c1.474-0.446,5.108-1.197,6.374-1.317c1.388-0.118,4.784-0.14,5.677-0.036l0.322,0.042l-0.437,0.298  c-1.382,0.952-2.542,1.408-6.209,2.438c-3.367,0.96-12.533,2.852-16.347,3.373c-0.438,0.062-1.879,0.273-2.004,0.399  c-0.112,0.105-0.146,0.204-0.101,0.293c0.116,0.234,0.609,0.254,5.095-0.505c2.436-0.416,3.69-0.529,5.835-0.529  c4.02,0,7.908,0.656,10.146,1.711c0.277,0.132,0.54,0.258,0.621,0.33c-0.129,0.088-0.645,0.23-1.286,0.405l-1.128,0.314l-5-0.036  c-2.816-0.012-5.314-0.059-5.666-0.094l-0.575-0.06l-0.059-0.471c-0.045-0.311-0.175-0.724-0.336-0.914l-0.328-0.377l-0.744,0.812  c-0.451,0.496-0.604,0.698-0.656,0.792c-0.087,0.022-0.366,0.052-0.857,0.052c-0.448,0-0.917-0.015-0.997-0.125  c-0.292-0.406-3.293-0.476-5.315-0.348c-2.16,0.131-3.709,0.344-5.184,0.712c-0.028,0.008-0.057,0.015-0.084,0.022  c0.375-0.192,0.869-0.441,1.458-0.733c1.376-0.688,2.892-1.521,3.45-1.897c1.022-0.693,1.044-0.687,1.422-0.584  c0.786,0.196,2.758,0.527,3.016,0.432c0.263-0.105,0.23-0.46,0.22-0.577c-0.028-0.292-0.028-0.292,1.068-0.746  C73.726,44.344,79.616,42.25,80.94,41.843z M94.33,32.583c-0.63,0.665-1.911,1.599-3.515,2.563  c-2.088,1.265-6.642,3.579-9.371,4.762c-3.206,1.386-8.775,3.892-9.777,4.399c-0.432,0.215-0.723,0.361-0.852,0.407  c-0.03-0.201-0.48-0.734-0.5-0.758c-0.275-0.326-0.523-0.692-0.585-0.837c-0.044-0.088-0.203-0.375-0.378-0.375  c-0.036-0.007-0.183-0.099-0.339-0.292c-0.177-0.189-0.604-0.588-0.93-0.871l-0.548-0.477l0.878-1.126l0.875,0.26  c2.721,0.798,5.567,0.891,7.615,0.247c0.584-0.175,0.88-0.351,0.88-0.521c0-0.216-0.581-0.656-0.758-0.785l-0.554-0.415l0.562-0.308  c0.23-0.125,0.601-0.328,0.996-0.543l0.929-0.507c2.564-1.401,4.734-2.368,7.739-3.452c2.214-0.813,3.929-1.185,6.117-1.327  l0.442-0.032c0.498-0.037,0.929-0.068,1.083-0.086l0.062-0.006L94.33,32.583z M77.128,75.32c-0.588-1.095-1.957-3.665-1.957-3.87  c0-0.166,0.072-0.219,0.133-0.234c0.176-0.049,0.361,0.062,1.826,2.736c2.355,4.318,2.519,4.706,2.378,4.942  c-0.042,0.071-0.117,0.107-0.222,0.107C79.198,79.001,79.106,79.001,77.128,75.32z M29.808,43.82c-0.168,0-0.271-0.052-0.304-0.154  c-0.052-0.161,0.1-0.352,0.526-0.662c0.251-0.183,0.715-0.469,0.974-0.336c0.054,0.028,0.146,0.098,0.146,0.26  C31.149,43.229,30.125,43.82,29.808,43.82z M43.899,66.764c0,0.269-0.684,0.876-0.952,1.031c-0.06,0.034-0.131,0.068-0.199,0.068  c-0.03,0-0.06-0.007-0.087-0.023c-0.113-0.074-0.173-0.164-0.182-0.271c-0.016-0.191,0.129-0.41,0.502-0.756l0.001-0.001  c0.359-0.322,0.593-0.435,0.76-0.36C43.814,66.484,43.899,66.564,43.899,66.764z M35.045,66.888c0.02,0.037,0.041,0.114-0.045,0.208  c-0.132,0.124-1.639,0.413-2.525,0.575c-1.555,0.284-2.135,0.354-2.365,0.354c-0.126,0-0.147-0.021-0.166-0.04  c-0.081-0.081-0.084-0.156-0.073-0.206c0.013-0.053,0.054-0.124,0.18-0.166c0.354-0.114,2.829-0.588,3.789-0.714  C34.861,66.749,34.979,66.763,35.045,66.888z M65.636,23.547c0.049-0.196,1.759-2.242,1.832-2.329  c0.998-1.178,2.12-2.528,2.479-2.963c0.566-0.688,0.744-0.876,0.917-0.876c0.006,0,0.012,0,0.017,0  c0.123,0.009,0.187,0.113,0.214,0.158c0.117,0.182-0.007,0.422-3.541,4.621c-1.26,1.497-1.602,1.729-1.754,1.729  c-0.036,0-0.061-0.013-0.085-0.025C65.576,23.792,65.621,23.608,65.636,23.547z M41.774,77c0,0.258-1.875,6.585-2.135,7.203  c-0.088,0.212-0.215,0.335-0.355,0.347c-0.006,0-0.013,0.001-0.021,0.001c-0.066,0-0.172-0.026-0.258-0.164  c-0.117-0.205,2.091-7.137,2.231-7.534c0.067-0.19,0.202-0.241,0.301-0.223C41.655,76.648,41.774,76.771,41.774,77z M44.726,67.59  c0,0.476-0.182,1.141-0.479,1.141c-0.096,0-0.181-0.042-0.239-0.119c-0.167-0.223-0.071-0.675,0.001-0.926  c0.116-0.417,0.292-0.639,0.475-0.618C44.594,67.083,44.726,67.186,44.726,67.59z M47.07,66.144c0.007,0.228-0.391,0.3-0.726,0.32  c-0.095,0.005-0.176,0.008-0.247,0.008c-0.188,0-0.297-0.022-0.368-0.089c-0.048-0.046-0.073-0.108-0.073-0.186  c0-0.313,0.403-0.313,0.727-0.313C46.834,65.883,47.065,65.971,47.07,66.144z M45.42,80.931c0-2.113,0.046-2.297,0.279-2.297  c0.239,0,0.29,0.252,0.361,1.795c0.143,3.02,0.087,3.657-0.074,3.826c-0.037,0.039-0.084,0.06-0.134,0.06  C45.518,84.314,45.42,83.871,45.42,80.931z M68.385,33.796c-0.026-0.031-0.065-0.098-0.031-0.2c0.032-0.076,0.091-0.213,2.329-0.603  h0c2.671-0.458,2.746-0.453,2.888-0.242c0.06,0.101,0.045,0.176,0.023,0.222c-0.091,0.193-0.427,0.275-2.398,0.585  c-1.482,0.239-2.156,0.333-2.484,0.333C68.507,33.892,68.436,33.855,68.385,33.796z M45.813,67.22  c0.18,0.188,0.426,0.445,0.199,0.671c-0.065,0.064-0.132,0.091-0.2,0.091c-0.168,0-0.337-0.162-0.471-0.29  c-0.067-0.067-0.393-0.403-0.393-0.586c0-0.17,0.092-0.232,0.147-0.254C45.321,66.759,45.642,67.043,45.813,67.22z M42.757,66.004  c-0.333,0-0.498-0.054-0.563-0.174c-0.05-0.093-0.029-0.202,0.063-0.323l0.007-0.008c0.211-0.235,0.899-0.238,1.219-0.114  c0.197,0.076,0.239,0.188,0.239,0.269c0,0.296-0.414,0.323-0.637,0.337C42.962,66,42.853,66.004,42.757,66.004z M70.522,62.509  c-0.009,0.28-0.076,0.43-0.205,0.458c-0.01,0.003-0.025,0.006-0.043,0.006c-0.042,0-0.101-0.016-0.161-0.079  c-0.153-0.162-0.284-0.659-0.2-0.893c0.03-0.09,0.095-0.162,0.177-0.199c0.071-0.032,0.147-0.034,0.215-0.004  C70.536,61.861,70.525,62.443,70.522,62.509z M70.148,64.052c0.111,0.19-0.119,0.609-0.166,0.692  c-0.168,0.293-0.282,0.327-0.352,0.327c-0.073,0-0.138-0.035-0.184-0.099c-0.133-0.184-0.09-0.579,0.006-0.868l0.001-0.002  c0.042-0.117,0.158-0.2,0.304-0.216C69.919,63.868,70.071,63.931,70.148,64.052z M75.88,57.779c0-0.042,0-0.106,1.206-1.728l0,0  c0.367-0.487,1.244-1.62,1.458-1.62c0.051,0,0.171,0,0.227,0.096c0.059,0.1,0.002,0.218-0.071,0.35  c-0.159,0.293-2.248,3.11-2.541,3.11C75.997,57.987,75.88,57.899,75.88,57.779z M23.541,61.151c0.057,0.134-0.091,0.215-0.296,0.327  c-0.529,0.277-2.72,1.044-4.511,1.58c-1.185,0.352-1.626,0.469-1.813,0.469c-0.098,0-0.125-0.032-0.152-0.079  c-0.062-0.108,0.039-0.203,0.072-0.234c0.104-0.104,0.62-0.289,5.112-1.74C23.467,60.986,23.483,61.018,23.541,61.151z   M71.463,65.578c-0.021,0.024-0.07,0.069-0.154,0.069c-0.026,0-0.056-0.004-0.09-0.016c-0.221-0.074-0.553-0.764-0.641-1.013  c-0.063-0.178-0.072-0.28-0.029-0.351c0.074-0.125,0.163-0.152,0.227-0.152c0.002,0,0.004,0,0.005,0  c0.154,0.004,0.292,0.154,0.494,0.537C71.443,64.979,71.611,65.405,71.463,65.578z M72.556,63.648  c0.26,0.092,0.41,0.271,0.378,0.454c-0.021,0.125-0.141,0.26-0.412,0.26c-0.397,0-1.011-0.241-1.011-0.562  c0-0.077,0.038-0.146,0.107-0.193C71.793,63.487,72.188,63.504,72.556,63.648z M71.725,62.478c0.329-0.203,0.499-0.292,0.631-0.216  c0.114,0.064,0.114,0.212,0.114,0.276c0,0.353-0.419,0.631-0.793,0.645h0c-0.221,0-0.347-0.061-0.38-0.18  C71.253,62.848,71.389,62.681,71.725,62.478z M71.767,72.14c0.13,0,0.231,0.091,0.231,0.208c0,0.029,0.012,0.207,0.03,0.481  c0.022,0.344,0.055,0.837,0.087,1.377c0.07,1.216,0.232,6.415,0.035,6.612c-0.06,0.06-0.116,0.077-0.162,0.077  c-0.029,0-0.053-0.007-0.071-0.014c-0.158-0.065-0.288-0.283-0.288-2.299c-0.012-1.058-0.06-2.856-0.106-4.009  c-0.033-0.658-0.089-2.145-0.038-2.271l0.004-0.009C71.534,72.203,71.648,72.14,71.767,72.14z M81.347,66.97  c-0.082-0.082-0.167-0.167-0.123-0.271c0.044-0.107,0.171-0.107,0.294-0.107c0.274,0,3.962,0.913,5.125,1.269  c0.453,0.139,0.648,0.222,0.69,0.376c0.032,0.12-0.053,0.211-0.081,0.242c-0.024,0.023-0.083,0.034-0.171,0.034  c-0.977,0-5.507-1.323-5.733-1.54L81.347,66.97z M31.81,43.476c0.146,0.061,0.166,0.256,0.166,0.42c0,0.335-0.1,0.6-0.261,0.691  c-0.041,0.023-0.085,0.035-0.129,0.035c-0.048,0-0.096-0.014-0.141-0.041c-0.098-0.059-0.162-0.179-0.182-0.339  c-0.023-0.19,0.02-0.463,0.169-0.613C31.526,43.535,31.667,43.417,31.81,43.476z M24.565,48.05c0.048,0.033,0.121,0.116,0.06,0.291  c-0.019,0.046-4.501,4.098-4.782,4.098c-0.118,0-0.25-0.071-0.308-0.167c-0.074-0.104-0.104-0.146,1.48-1.557  c0.927-0.826,1.985-1.729,2.762-2.358C23.947,48.216,24.36,47.906,24.565,48.05z M32.338,41.8c-0.058-0.133,0.028-0.301,0.306-0.6  c0.261-0.278,0.445-0.376,0.589-0.319c0.105,0.042,0.159,0.15,0.159,0.322c0,0.306-0.462,0.727-0.798,0.727  C32.43,41.931,32.364,41.86,32.338,41.8z M44.222,51.611c0.029,0.122-0.081,0.202-0.161,0.26c-0.083,0.058-0.189,0.091-0.406,0.091  c-0.272,0-0.719-0.052-1.517-0.175c-1.587-0.228-1.884-0.327-1.971-0.508c-0.023-0.048-0.039-0.126,0.017-0.222l0.005-0.008  c0.147-0.213,0.436-0.205,2.2,0.078C44.045,51.405,44.183,51.441,44.222,51.611z M31.078,40.845  c-0.063-0.397-0.077-0.544,0.021-0.636c0.083-0.079,0.198-0.051,0.26-0.036c0.278,0.04,0.336,0.316,0.356,0.609  c0.047,0.562-0.026,0.858-0.219,0.88c-0.007,0.001-0.015,0.001-0.022,0.001C31.291,41.664,31.157,41.389,31.078,40.845z   M29.482,41.393c0-0.165,0.086-0.234,0.138-0.262c0.155-0.082,0.407-0.005,0.766,0.241c0.375,0.259,0.539,0.474,0.487,0.637  c-0.022,0.072-0.09,0.158-0.286,0.158C30.25,42.167,29.482,41.717,29.482,41.393z M24.892,41.759c0,0.044-0.018,0.086-0.05,0.119  c-0.124,0.124-0.449,0.162-3.153,0.162c-0.417,0-0.892-0.001-1.432-0.002c-7.361-0.034-7.403-0.193-7.452-0.376l-0.017-0.062  l0.043-0.059c0.042-0.052,0.13-0.159,2.191-0.214c2.332-0.062,4.422-0.043,7.717,0.071C24.631,41.467,24.892,41.51,24.892,41.759z   M22.113,36.669c0.008,0.06-0.012,0.116-0.056,0.16c-0.029,0.029-0.063,0.042-0.106,0.042c-0.066,0-0.155-0.03-0.282-0.083  c-0.627-0.26-6.353-3.323-6.353-3.731c0-0.113,0.062-0.166,0.099-0.188c0.202-0.119,0.615,0.053,2.968,1.401  C21.759,36.215,22.084,36.446,22.113,36.669z M62.323,19.671c0.25-0.647,0.76-2.042,1.12-3.088c0.308-0.925,0.659-1.914,0.707-1.995  l0,0c0.073-0.121,0.185-0.183,0.306-0.173c0.127,0.013,0.233,0.108,0.285,0.255c0.085,0.227-0.914,2.877-0.957,2.99  c-1.091,2.923-1.243,3.307-1.56,3.57c-0.049,0.04-0.135,0.109-0.223,0.109c-0.031,0-0.063-0.009-0.093-0.031  C61.77,21.206,61.792,21.043,62.323,19.671z M56.585,33.469c-0.241-0.141-0.207-1.403-0.107-1.669  c0.053-0.152,0.212-0.271,0.366-0.271c0.076,0,0.138,0.025,0.184,0.074c0.105,0.113,0.11,0.328,0.071,0.874  c-0.041,0.747-0.09,0.96-0.24,1.036c-0.032,0.016-0.063,0.022-0.093,0.022C56.683,33.534,56.613,33.487,56.585,33.469z   M52.617,21.87c0.884,2.476,0.917,2.636,0.759,2.748c-0.029,0.021-0.06,0.029-0.089,0.029c-0.082,0-0.161-0.063-0.205-0.099  c-0.291-0.232-2.104-5.079-2.287-5.951v0c-0.042-0.205-0.054-0.351,0.023-0.446c0.044-0.054,0.109-0.082,0.193-0.082  c0.208,0,0.397,0.411,0.519,0.756C51.662,19.206,52.149,20.585,52.617,21.87z M54.629,32.762c0-0.195,0.101-0.259,0.16-0.28  c0.262-0.087,0.632,0.326,0.831,0.581c0.439,0.601,0.439,0.682,0.439,0.726c0,0.102-0.054,0.193-0.145,0.246  c-0.052,0.03-0.111,0.044-0.171,0.044c-0.065,0-0.131-0.017-0.191-0.052C55.301,33.876,54.629,32.994,54.629,32.762z M54.083,34.357  c-0.008-0.041-0.019-0.181,0.176-0.259l0.002,0c0.189-0.074,0.359-0.055,0.859,0.091c0.246,0.07,0.361,0.173,0.342,0.306  c-0.021,0.155-0.216,0.234-0.578,0.234C54.532,34.729,54.126,34.58,54.083,34.357z M59.446,36.583  c-0.001,0.04-0.017,0.114-0.103,0.169c-0.025,0.017-0.056,0.028-0.1,0.028c-0.085,0-0.219-0.044-0.455-0.169  c-0.01-0.005-0.972-0.526-0.972-0.791c0-0.153,0.081-0.218,0.128-0.243c0.11-0.055,0.306-0.069,0.871,0.33  C59.306,36.273,59.452,36.431,59.446,36.583z M57.474,33.663c-0.033-0.075-0.12-0.273,0.684-1.139  c0.646-0.701,0.884-0.8,1.048-0.736c0.106,0.042,0.161,0.151,0.161,0.326c0,0.281-1.4,1.671-1.684,1.671  C57.542,33.785,57.49,33.7,57.474,33.663z M58.938,34.245c1.35-0.212,1.475-0.036,1.527,0.04c0.049,0.083,0.053,0.164,0.016,0.235  c-0.072,0.138-0.299,0.292-1.442,0.386c-0.29,0.029-0.498,0.042-0.649,0.042c-0.241,0-0.339-0.033-0.396-0.084  c-0.038-0.034-0.059-0.081-0.059-0.13c0-0.283,0.29-0.363,1-0.489L58.938,34.245z M45.72,43.411  c1.142,2.768,1.721,4.222,1.721,4.321c0,0.127-0.117,0.219-0.278,0.219c-0.375,0-1.185-2.245-1.192-2.267  c-0.065-0.206-0.296-0.758-0.705-1.691c-0.023-0.051-0.572-1.281-0.487-1.511l0.001-0.002c0.06-0.153,0.151-0.182,0.213-0.175  C45.127,42.306,45.306,42.395,45.72,43.411z"/><text x="0" y="115" fill="#000000" font-size="5px" font-weight="bold" font-family="'Helvetica Neue', Helvetica, Arial-Unicode, Arial, Sans-serif">Created by Laymik</text><text x="0" y="120" fill="#000000" font-size="5px" font-weight="bold" font-family="'Helvetica Neue', Helvetica, Arial-Unicode, Arial, Sans-serif">from the Noun Project</text></svg>